<svg xmlns="http://www.w3.org/2000/svg" version="1.1" xmlns:xlink="http://www.w3.org/1999/xlink" xmlns:svgjs="http://svgjs.com/svgjs" width="1920" height="1279" preserveAspectRatio="none" viewBox="0 0 1920 1279"><g mask="url(&quot;#SvgjsMask1044&quot;)" fill="none"><rect width="1920" height="1279" x="0" y="0" fill="rgba(251, 255, 0, 1)"></rect><g><path d="M1798.5 940.5L1468.5 1270.5L1171.5 1270.5" stroke-width="5.5" stroke="rgba(0, 0, 0, 1)"></path><path d="M1793 940.5 a5.5 5.5 0 1 0 11 0 a5.5 5.5 0 1 0 -11 0zM1166 1270.5 a5.5 5.5 0 1 0 11 0 a5.5 5.5 0 1 0 -11 0z" fill="rgba(0, 0, 0, 1)"></path><path d="M16.5 478.5L16.5 16.5" stroke-width="5.5" stroke="rgba(0, 0, 0, 1)"></path><path d="M11 478.5 a5.5 5.5 0 1 0 11 0 a5.5 5.5 0 1 0 -11 0zM11 16.5 a5.5 5.5 0 1 0 11 0 a5.5 5.5 0 1 0 -11 0z" fill="rgba(0, 0, 0, 1)"></path><path d="M346.5 313.5L49.5 16.5" stroke-width="5.5" stroke="rgba(0, 0, 0, 1)"></path><path d="M341 313.5 a5.5 5.5 0 1 0 11 0 a5.5 5.5 0 1 0 -11 0zM44 16.5 a5.5 5.5 0 1 0 11 0 a5.5 5.5 0 1 0 -11 0z" fill="rgba(0, 0, 0, 1)"></path><path d="M412.5 1138.5L412.5 1105.5L346.5 1039.5L346.5 577.5L412.5 511.5" stroke-width="5.5" stroke="rgba(0, 0, 0, 1)"></path><path d="M407 1138.5 a5.5 5.5 0 1 0 11 0 a5.5 5.5 0 1 0 -11 0zM407 511.5 a5.5 5.5 0 1 0 11 0 a5.5 5.5 0 1 0 -11 0z" fill="rgba(0, 0, 0, 1)"></path><path d="M676.5 346.5L676.5 973.5" stroke-width="5.5" stroke="rgba(0, 0, 0, 1)"></path><path d="M671 346.5 a5.5 5.5 0 1 0 11 0 a5.5 5.5 0 1 0 -11 0zM671 973.5 a5.5 5.5 0 1 0 11 0 a5.5 5.5 0 1 0 -11 0z" fill="rgba(0, 0, 0, 1)"></path><path d="M874.5 280.5L874.5 544.5L709.5 709.5L709.5 907.5" stroke-width="5.5" stroke="rgba(0, 0, 0, 1)"></path><path d="M869 280.5 a5.5 5.5 0 1 0 11 0 a5.5 5.5 0 1 0 -11 0zM704 907.5 a5.5 5.5 0 1 0 11 0 a5.5 5.5 0 1 0 -11 0z" fill="rgba(0, 0, 0, 1)"></path><path d="M346.5 82.5L379.5 49.5L709.5 49.5L874.5 214.5L973.5 214.5" stroke-width="5.5" stroke="rgba(0, 0, 0, 1)"></path><path d="M341 82.5 a5.5 5.5 0 1 0 11 0 a5.5 5.5 0 1 0 -11 0zM968 214.5 a5.5 5.5 0 1 0 11 0 a5.5 5.5 0 1 0 -11 0z" fill="rgba(0, 0, 0, 1)"></path><path d="M1534.5 973.5L1534.5 1105.5L1567.5 1138.5" stroke-width="5.5" stroke="rgba(0, 0, 0, 1)"></path><path d="M1529 973.5 a5.5 5.5 0 1 0 11 0 a5.5 5.5 0 1 0 -11 0zM1562 1138.5 a5.5 5.5 0 1 0 11 0 a5.5 5.5 0 1 0 -11 0z" fill="rgba(0, 0, 0, 1)"></path><path d="M313.5 841.5L313.5 511.5L511.5 313.5L610.5 313.5" stroke-width="5.5" stroke="rgba(0, 0, 0, 1)"></path><path d="M308 841.5 a5.5 5.5 0 1 0 11 0 a5.5 5.5 0 1 0 -11 0zM605 313.5 a5.5 5.5 0 1 0 11 0 a5.5 5.5 0 1 0 -11 0z" fill="rgba(0, 0, 0, 1)"></path><path d="M1699.5 1270.5L1501.5 1270.5" stroke-width="5.5" stroke="rgba(0, 0, 0, 1)"></path><path d="M1694 1270.5 a5.5 5.5 0 1 0 11 0 a5.5 5.5 0 1 0 -11 0zM1496 1270.5 a5.5 5.5 0 1 0 11 0 a5.5 5.5 0 1 0 -11 0z" fill="rgba(0, 0, 0, 1)"></path><path d="M544.5 1072.5L544.5 1270.5" stroke-width="5.5" stroke="rgba(0, 0, 0, 1)"></path><path d="M539 1072.5 a5.5 5.5 0 1 0 11 0 a5.5 5.5 0 1 0 -11 0zM539 1270.5 a5.5 5.5 0 1 0 11 0 a5.5 5.5 0 1 0 -11 0z" fill="rgba(0, 0, 0, 1)"></path><path d="M1534.5 49.5L1534.5 412.5L1468.5 478.5L1468.5 511.5L1501.5 544.5L1501.5 676.5" stroke-width="5.5" stroke="rgba(0, 0, 0, 1)"></path><path d="M1529 49.5 a5.5 5.5 0 1 0 11 0 a5.5 5.5 0 1 0 -11 0zM1496 676.5 a5.5 5.5 0 1 0 11 0 a5.5 5.5 0 1 0 -11 0z" fill="rgba(0, 0, 0, 1)"></path><path d="M445.5 808.5L478.5 841.5L643.5 841.5" stroke-width="5.5" stroke="rgba(0, 0, 0, 1)"></path><path d="M440 808.5 a5.5 5.5 0 1 0 11 0 a5.5 5.5 0 1 0 -11 0zM638 841.5 a5.5 5.5 0 1 0 11 0 a5.5 5.5 0 1 0 -11 0z" fill="rgba(0, 0, 0, 1)"></path><path d="M511.5 1171.5L511.5 1039.5L577.5 973.5L577.5 874.5" stroke-width="5.5" stroke="rgba(0, 0, 0, 1)"></path><path d="M506 1171.5 a5.5 5.5 0 1 0 11 0 a5.5 5.5 0 1 0 -11 0zM572 874.5 a5.5 5.5 0 1 0 11 0 a5.5 5.5 0 1 0 -11 0z" fill="rgba(0, 0, 0, 1)"></path><path d="M82.5 181.5L49.5 214.5L49.5 808.5" stroke-width="5.5" stroke="rgba(0, 0, 0, 1)"></path><path d="M77 181.5 a5.5 5.5 0 1 0 11 0 a5.5 5.5 0 1 0 -11 0zM44 808.5 a5.5 5.5 0 1 0 11 0 a5.5 5.5 0 1 0 -11 0z" fill="rgba(0, 0, 0, 1)"></path><path d="M1237.5 808.5L1864.5 808.5" stroke-width="5.5" stroke="rgba(0, 0, 0, 1)"></path><path d="M1232 808.5 a5.5 5.5 0 1 0 11 0 a5.5 5.5 0 1 0 -11 0zM1859 808.5 a5.5 5.5 0 1 0 11 0 a5.5 5.5 0 1 0 -11 0z" fill="rgba(0, 0, 0, 1)"></path><path d="M775.5 973.5L742.5 940.5L742.5 709.5L1105.5 346.5" stroke-width="5.5" stroke="rgba(0, 0, 0, 1)"></path><path d="M770 973.5 a5.5 5.5 0 1 0 11 0 a5.5 5.5 0 1 0 -11 0zM1100 346.5 a5.5 5.5 0 1 0 11 0 a5.5 5.5 0 1 0 -11 0z" fill="rgba(0, 0, 0, 1)"></path><path d="M775.5 478.5L775.5 379.5L478.5 82.5L445.5 82.5L313.5 214.5L313.5 247.5L346.5 280.5" stroke-width="5.5" stroke="rgba(0, 0, 0, 1)"></path><path d="M770 478.5 a5.5 5.5 0 1 0 11 0 a5.5 5.5 0 1 0 -11 0zM341 280.5 a5.5 5.5 0 1 0 11 0 a5.5 5.5 0 1 0 -11 0z" fill="rgba(0, 0, 0, 1)"></path><path d="M1138.5 181.5L1138.5 478.5L808.5 808.5" stroke-width="5.5" stroke="rgba(0, 0, 0, 1)"></path><path d="M1133 181.5 a5.5 5.5 0 1 0 11 0 a5.5 5.5 0 1 0 -11 0zM803 808.5 a5.5 5.5 0 1 0 11 0 a5.5 5.5 0 1 0 -11 0z" fill="rgba(0, 0, 0, 1)"></path><path d="M973.5 313.5L907.5 247.5L841.5 247.5L808.5 214.5L808.5 181.5L709.5 82.5L676.5 82.5L610.5 148.5L577.5 148.5L511.5 82.5" stroke-width="5.5" stroke="rgba(0, 0, 0, 1)"></path><path d="M968 313.5 a5.5 5.5 0 1 0 11 0 a5.5 5.5 0 1 0 -11 0zM506 82.5 a5.5 5.5 0 1 0 11 0 a5.5 5.5 0 1 0 -11 0z" fill="rgba(0, 0, 0, 1)"></path><path d="M577.5 412.5L577.5 346.5" stroke-width="5.5" stroke="rgba(0, 0, 0, 1)"></path><path d="M572 412.5 a5.5 5.5 0 1 0 11 0 a5.5 5.5 0 1 0 -11 0zM572 346.5 a5.5 5.5 0 1 0 11 0 a5.5 5.5 0 1 0 -11 0z" fill="rgba(0, 0, 0, 1)"></path><path d="M313.5 973.5L313.5 1171.5L247.5 1237.5L214.5 1237.5L181.5 1204.5L181.5 1171.5L214.5 1138.5L214.5 907.5" stroke-width="5.5" stroke="rgba(0, 0, 0, 1)"></path><path d="M308 973.5 a5.5 5.5 0 1 0 11 0 a5.5 5.5 0 1 0 -11 0zM209 907.5 a5.5 5.5 0 1 0 11 0 a5.5 5.5 0 1 0 -11 0z" fill="rgba(0, 0, 0, 1)"></path><path d="M841.5 742.5L775.5 808.5L775.5 940.5L1105.5 1270.5L1138.5 1270.5L1204.5 1204.5" stroke-width="5.5" stroke="rgba(0, 0, 0, 1)"></path><path d="M836 742.5 a5.5 5.5 0 1 0 11 0 a5.5 5.5 0 1 0 -11 0zM1199 1204.5 a5.5 5.5 0 1 0 11 0 a5.5 5.5 0 1 0 -11 0z" fill="rgba(0, 0, 0, 1)"></path><path d="M1039.5 907.5L1336.5 907.5L1402.5 841.5L1666.5 841.5" stroke-width="5.5" stroke="rgba(0, 0, 0, 1)"></path><path d="M1034 907.5 a5.5 5.5 0 1 0 11 0 a5.5 5.5 0 1 0 -11 0zM1661 841.5 a5.5 5.5 0 1 0 11 0 a5.5 5.5 0 1 0 -11 0z" fill="rgba(0, 0, 0, 1)"></path><path d="M940.5 346.5L940.5 313.5L907.5 280.5" stroke-width="5.5" stroke="rgba(0, 0, 0, 1)"></path><path d="M935 346.5 a5.5 5.5 0 1 0 11 0 a5.5 5.5 0 1 0 -11 0zM902 280.5 a5.5 5.5 0 1 0 11 0 a5.5 5.5 0 1 0 -11 0z" fill="rgba(0, 0, 0, 1)"></path><path d="M1732.5 1237.5L1930.5 1039.5L1930.5 808.5L1732.5 610.5" stroke-width="5.5" stroke="rgba(0, 0, 0, 1)"></path><path d="M1727 1237.5 a5.5 5.5 0 1 0 11 0 a5.5 5.5 0 1 0 -11 0zM1727 610.5 a5.5 5.5 0 1 0 11 0 a5.5 5.5 0 1 0 -11 0z" fill="rgba(0, 0, 0, 1)"></path><path d="M676.5 1270.5L874.5 1072.5" stroke-width="5.5" stroke="rgba(0, 0, 0, 1)"></path><path d="M671 1270.5 a5.5 5.5 0 1 0 11 0 a5.5 5.5 0 1 0 -11 0zM869 1072.5 a5.5 5.5 0 1 0 11 0 a5.5 5.5 0 1 0 -11 0z" fill="rgba(0, 0, 0, 1)"></path><path d="M577.5 511.5L511.5 511.5L445.5 445.5L412.5 445.5L346.5 511.5L346.5 544.5" stroke-width="5.5" stroke="rgba(0, 0, 0, 1)"></path><path d="M572 511.5 a5.5 5.5 0 1 0 11 0 a5.5 5.5 0 1 0 -11 0zM341 544.5 a5.5 5.5 0 1 0 11 0 a5.5 5.5 0 1 0 -11 0z" fill="rgba(0, 0, 0, 1)"></path><path d="M1039.5 544.5L874.5 709.5L775.5 709.5" stroke-width="5.5" stroke="rgba(0, 0, 0, 1)"></path><path d="M1034 544.5 a5.5 5.5 0 1 0 11 0 a5.5 5.5 0 1 0 -11 0zM770 709.5 a5.5 5.5 0 1 0 11 0 a5.5 5.5 0 1 0 -11 0z" fill="rgba(0, 0, 0, 1)"></path><path d="M1435.5 346.5L1105.5 676.5L1006.5 676.5L808.5 874.5" stroke-width="5.5" stroke="rgba(0, 0, 0, 1)"></path><path d="M1430 346.5 a5.5 5.5 0 1 0 11 0 a5.5 5.5 0 1 0 -11 0zM803 874.5 a5.5 5.5 0 1 0 11 0 a5.5 5.5 0 1 0 -11 0z" fill="rgba(0, 0, 0, 1)"></path><path d="M1468.5 1039.5L1501.5 1072.5L1501.5 1204.5L1468.5 1237.5L1204.5 1237.5" stroke-width="5.5" stroke="rgba(0, 0, 0, 1)"></path><path d="M1463 1039.5 a5.5 5.5 0 1 0 11 0 a5.5 5.5 0 1 0 -11 0zM1199 1237.5 a5.5 5.5 0 1 0 11 0 a5.5 5.5 0 1 0 -11 0z" fill="rgba(0, 0, 0, 1)"></path><path d="M907.5 808.5L1006.5 709.5L1534.5 709.5" stroke-width="5.5" stroke="rgba(0, 0, 0, 1)"></path><path d="M902 808.5 a5.5 5.5 0 1 0 11 0 a5.5 5.5 0 1 0 -11 0zM1529 709.5 a5.5 5.5 0 1 0 11 0 a5.5 5.5 0 1 0 -11 0z" fill="rgba(0, 0, 0, 1)"></path><path d="M115.5 115.5L115.5 247.5L313.5 445.5L313.5 478.5L82.5 709.5L82.5 742.5" stroke-width="5.5" stroke="rgba(0, 0, 0, 1)"></path><path d="M110 115.5 a5.5 5.5 0 1 0 11 0 a5.5 5.5 0 1 0 -11 0zM77 742.5 a5.5 5.5 0 1 0 11 0 a5.5 5.5 0 1 0 -11 0z" fill="rgba(0, 0, 0, 1)"></path><path d="M841.5 1138.5L709.5 1270.5" stroke-width="5.5" stroke="rgba(0, 0, 0, 1)"></path><path d="M836 1138.5 a5.5 5.5 0 1 0 11 0 a5.5 5.5 0 1 0 -11 0zM704 1270.5 a5.5 5.5 0 1 0 11 0 a5.5 5.5 0 1 0 -11 0z" fill="rgba(0, 0, 0, 1)"></path><path d="M940.5 115.5L940.5 82.5L1006.5 16.5L1270.5 16.5L1435.5 181.5L1501.5 181.5" stroke-width="5.5" stroke="rgba(0, 0, 0, 1)"></path><path d="M935 115.5 a5.5 5.5 0 1 0 11 0 a5.5 5.5 0 1 0 -11 0zM1496 181.5 a5.5 5.5 0 1 0 11 0 a5.5 5.5 0 1 0 -11 0z" fill="rgba(0, 0, 0, 1)"></path><path d="M973.5 247.5L1072.5 346.5" stroke-width="5.5" stroke="rgba(0, 0, 0, 1)"></path><path d="M968 247.5 a5.5 5.5 0 1 0 11 0 a5.5 5.5 0 1 0 -11 0zM1067 346.5 a5.5 5.5 0 1 0 11 0 a5.5 5.5 0 1 0 -11 0z" fill="rgba(0, 0, 0, 1)"></path><path d="M1864.5 181.5L1699.5 16.5L1303.5 16.5" stroke-width="5.5" stroke="rgba(0, 0, 0, 1)"></path><path d="M1859 181.5 a5.5 5.5 0 1 0 11 0 a5.5 5.5 0 1 0 -11 0zM1298 16.5 a5.5 5.5 0 1 0 11 0 a5.5 5.5 0 1 0 -11 0z" fill="rgba(0, 0, 0, 1)"></path><path d="M1501.5 940.5L1567.5 874.5L1732.5 874.5L1765.5 907.5L1765.5 940.5L1600.5 1105.5L1567.5 1105.5" stroke-width="5.5" stroke="rgba(0, 0, 0, 1)"></path><path d="M1496 940.5 a5.5 5.5 0 1 0 11 0 a5.5 5.5 0 1 0 -11 0zM1562 1105.5 a5.5 5.5 0 1 0 11 0 a5.5 5.5 0 1 0 -11 0z" fill="rgba(0, 0, 0, 1)"></path><path d="M1204.5 379.5L1171.5 346.5L1171.5 49.5" stroke-width="5.5" stroke="rgba(0, 0, 0, 1)"></path><path d="M1199 379.5 a5.5 5.5 0 1 0 11 0 a5.5 5.5 0 1 0 -11 0zM1166 49.5 a5.5 5.5 0 1 0 11 0 a5.5 5.5 0 1 0 -11 0z" fill="rgba(0, 0, 0, 1)"></path><path d="M1006.5 115.5L973.5 115.5L940.5 148.5L841.5 148.5L709.5 16.5L379.5 16.5" stroke-width="5.5" stroke="rgba(0, 0, 0, 1)"></path><path d="M1001 115.5 a5.5 5.5 0 1 0 11 0 a5.5 5.5 0 1 0 -11 0zM374 16.5 a5.5 5.5 0 1 0 11 0 a5.5 5.5 0 1 0 -11 0z" fill="rgba(0, 0, 0, 1)"></path><path d="M1072.5 1105.5L1072.5 1204.5L1105.5 1237.5L1138.5 1237.5L1501.5 874.5L1534.5 874.5" stroke-width="5.5" stroke="rgba(0, 0, 0, 1)"></path><path d="M1067 1105.5 a5.5 5.5 0 1 0 11 0 a5.5 5.5 0 1 0 -11 0zM1529 874.5 a5.5 5.5 0 1 0 11 0 a5.5 5.5 0 1 0 -11 0z" fill="rgba(0, 0, 0, 1)"></path><path d="M412.5 379.5L346.5 445.5" stroke-width="5.5" stroke="rgba(0, 0, 0, 1)"></path><path d="M407 379.5 a5.5 5.5 0 1 0 11 0 a5.5 5.5 0 1 0 -11 0zM341 445.5 a5.5 5.5 0 1 0 11 0 a5.5 5.5 0 1 0 -11 0z" fill="rgba(0, 0, 0, 1)"></path><path d="M1435.5 907.5L1138.5 1204.5L1105.5 1204.5" stroke-width="5.5" stroke="rgba(0, 0, 0, 1)"></path><path d="M1430 907.5 a5.5 5.5 0 1 0 11 0 a5.5 5.5 0 1 0 -11 0zM1100 1204.5 a5.5 5.5 0 1 0 11 0 a5.5 5.5 0 1 0 -11 0z" fill="rgba(0, 0, 0, 1)"></path><path d="M1930.5 511.5L1798.5 643.5" stroke-width="5.5" stroke="rgba(0, 0, 0, 1)"></path><path d="M1925 511.5 a5.5 5.5 0 1 0 11 0 a5.5 5.5 0 1 0 -11 0zM1793 643.5 a5.5 5.5 0 1 0 11 0 a5.5 5.5 0 1 0 -11 0z" fill="rgba(0, 0, 0, 1)"></path><path d="M1006.5 775.5L1105.5 874.5L1336.5 874.5L1369.5 841.5" stroke-width="5.5" stroke="rgba(0, 0, 0, 1)"></path><path d="M1001 775.5 a5.5 5.5 0 1 0 11 0 a5.5 5.5 0 1 0 -11 0zM1364 841.5 a5.5 5.5 0 1 0 11 0 a5.5 5.5 0 1 0 -11 0z" fill="rgba(0, 0, 0, 1)"></path><path d="M1468.5 412.5L1468.5 445.5L1336.5 577.5L1336.5 676.5" stroke-width="5.5" stroke="rgba(0, 0, 0, 1)"></path><path d="M1463 412.5 a5.5 5.5 0 1 0 11 0 a5.5 5.5 0 1 0 -11 0zM1331 676.5 a5.5 5.5 0 1 0 11 0 a5.5 5.5 0 1 0 -11 0z" fill="rgba(0, 0, 0, 1)"></path><path d="M1765.5 1270.5L1930.5 1270.5" stroke-width="5.5" stroke="rgba(0, 0, 0, 1)"></path><path d="M1760 1270.5 a5.5 5.5 0 1 0 11 0 a5.5 5.5 0 1 0 -11 0zM1925 1270.5 a5.5 5.5 0 1 0 11 0 a5.5 5.5 0 1 0 -11 0z" fill="rgba(0, 0, 0, 1)"></path><path d="M1303.5 511.5L1303.5 676.5" stroke-width="5.5" stroke="rgba(0, 0, 0, 1)"></path><path d="M1298 511.5 a5.5 5.5 0 1 0 11 0 a5.5 5.5 0 1 0 -11 0zM1298 676.5 a5.5 5.5 0 1 0 11 0 a5.5 5.5 0 1 0 -11 0z" fill="rgba(0, 0, 0, 1)"></path><path d="M280.5 544.5L280.5 1171.5" stroke-width="5.5" stroke="rgba(0, 0, 0, 1)"></path><path d="M275 544.5 a5.5 5.5 0 1 0 11 0 a5.5 5.5 0 1 0 -11 0zM275 1171.5 a5.5 5.5 0 1 0 11 0 a5.5 5.5 0 1 0 -11 0z" fill="rgba(0, 0, 0, 1)"></path><path d="M1204.5 1105.5L1138.5 1171.5L1105.5 1171.5" stroke-width="5.5" stroke="rgba(0, 0, 0, 1)"></path><path d="M1199 1105.5 a5.5 5.5 0 1 0 11 0 a5.5 5.5 0 1 0 -11 0zM1100 1171.5 a5.5 5.5 0 1 0 11 0 a5.5 5.5 0 1 0 -11 0z" fill="rgba(0, 0, 0, 1)"></path><path d="M1204.5 676.5L1270.5 610.5L1270.5 544.5" stroke-width="5.5" stroke="rgba(0, 0, 0, 1)"></path><path d="M1199 676.5 a5.5 5.5 0 1 0 11 0 a5.5 5.5 0 1 0 -11 0zM1265 544.5 a5.5 5.5 0 1 0 11 0 a5.5 5.5 0 1 0 -11 0z" fill="rgba(0, 0, 0, 1)"></path><path d="M544.5 742.5L544.5 808.5" stroke-width="5.5" stroke="rgba(0, 0, 0, 1)"></path><path d="M539 742.5 a5.5 5.5 0 1 0 11 0 a5.5 5.5 0 1 0 -11 0zM539 808.5 a5.5 5.5 0 1 0 11 0 a5.5 5.5 0 1 0 -11 0z" fill="rgba(0, 0, 0, 1)"></path><path d="M610.5 1006.5L610.5 874.5" stroke-width="5.5" stroke="rgba(0, 0, 0, 1)"></path><path d="M605 1006.5 a5.5 5.5 0 1 0 11 0 a5.5 5.5 0 1 0 -11 0zM605 874.5 a5.5 5.5 0 1 0 11 0 a5.5 5.5 0 1 0 -11 0z" fill="rgba(0, 0, 0, 1)"></path><path d="M1369.5 742.5L1798.5 742.5L1831.5 775.5L1864.5 775.5" stroke-width="5.5" stroke="rgba(0, 0, 0, 1)"></path><path d="M1364 742.5 a5.5 5.5 0 1 0 11 0 a5.5 5.5 0 1 0 -11 0zM1859 775.5 a5.5 5.5 0 1 0 11 0 a5.5 5.5 0 1 0 -11 0z" fill="rgba(0, 0, 0, 1)"></path><path d="M148.5 973.5L181.5 1006.5L181.5 1138.5L49.5 1270.5L16.5 1270.5" stroke-width="5.5" stroke="rgba(0, 0, 0, 1)"></path><path d="M143 973.5 a5.5 5.5 0 1 0 11 0 a5.5 5.5 0 1 0 -11 0zM11 1270.5 a5.5 5.5 0 1 0 11 0 a5.5 5.5 0 1 0 -11 0z" fill="rgba(0, 0, 0, 1)"></path><path d="M643.5 577.5L478.5 577.5L445.5 544.5L412.5 544.5L379.5 577.5L379.5 940.5" stroke-width="5.5" stroke="rgba(0, 0, 0, 1)"></path><path d="M638 577.5 a5.5 5.5 0 1 0 11 0 a5.5 5.5 0 1 0 -11 0zM374 940.5 a5.5 5.5 0 1 0 11 0 a5.5 5.5 0 1 0 -11 0z" fill="rgba(0, 0, 0, 1)"></path><path d="M1732.5 214.5L1732.5 181.5L1765.5 148.5L1765.5 115.5L1699.5 49.5L1567.5 49.5" stroke-width="5.5" stroke="rgba(0, 0, 0, 1)"></path><path d="M1727 214.5 a5.5 5.5 0 1 0 11 0 a5.5 5.5 0 1 0 -11 0zM1562 49.5 a5.5 5.5 0 1 0 11 0 a5.5 5.5 0 1 0 -11 0z" fill="rgba(0, 0, 0, 1)"></path><path d="M1699.5 610.5L1534.5 445.5" stroke-width="5.5" stroke="rgba(0, 0, 0, 1)"></path><path d="M1694 610.5 a5.5 5.5 0 1 0 11 0 a5.5 5.5 0 1 0 -11 0zM1529 445.5 a5.5 5.5 0 1 0 11 0 a5.5 5.5 0 1 0 -11 0z" fill="rgba(0, 0, 0, 1)"></path><path d="M346.5 1270.5L214.5 1270.5" stroke-width="5.5" stroke="rgba(0, 0, 0, 1)"></path><path d="M341 1270.5 a5.5 5.5 0 1 0 11 0 a5.5 5.5 0 1 0 -11 0zM209 1270.5 a5.5 5.5 0 1 0 11 0 a5.5 5.5 0 1 0 -11 0z" fill="rgba(0, 0, 0, 1)"></path><path d="M1897.5 445.5L1864.5 412.5L1567.5 412.5" stroke-width="5.5" stroke="rgba(0, 0, 0, 1)"></path><path d="M1892 445.5 a5.5 5.5 0 1 0 11 0 a5.5 5.5 0 1 0 -11 0zM1562 412.5 a5.5 5.5 0 1 0 11 0 a5.5 5.5 0 1 0 -11 0z" fill="rgba(0, 0, 0, 1)"></path><path d="M1039.5 1270.5L742.5 1270.5" stroke-width="5.5" stroke="rgba(0, 0, 0, 1)"></path><path d="M1034 1270.5 a5.5 5.5 0 1 0 11 0 a5.5 5.5 0 1 0 -11 0zM737 1270.5 a5.5 5.5 0 1 0 11 0 a5.5 5.5 0 1 0 -11 0z" fill="rgba(0, 0, 0, 1)"></path><path d="M1072.5 247.5L1006.5 247.5" stroke-width="5.5" stroke="rgba(0, 0, 0, 1)"></path><path d="M1067 247.5 a5.5 5.5 0 1 0 11 0 a5.5 5.5 0 1 0 -11 0zM1001 247.5 a5.5 5.5 0 1 0 11 0 a5.5 5.5 0 1 0 -11 0z" fill="rgba(0, 0, 0, 1)"></path><path d="M82.5 1006.5L16.5 1006.5" stroke-width="5.5" stroke="rgba(0, 0, 0, 1)"></path><path d="M77 1006.5 a5.5 5.5 0 1 0 11 0 a5.5 5.5 0 1 0 -11 0zM11 1006.5 a5.5 5.5 0 1 0 11 0 a5.5 5.5 0 1 0 -11 0z" fill="rgba(0, 0, 0, 1)"></path><path d="M1468.5 148.5L1435.5 148.5L1336.5 49.5" stroke-width="5.5" stroke="rgba(0, 0, 0, 1)"></path><path d="M1463 148.5 a5.5 5.5 0 1 0 11 0 a5.5 5.5 0 1 0 -11 0zM1331 49.5 a5.5 5.5 0 1 0 11 0 a5.5 5.5 0 1 0 -11 0z" fill="rgba(0, 0, 0, 1)"></path><path d="M148.5 445.5L214.5 511.5L214.5 544.5L82.5 676.5" stroke-width="5.5" stroke="rgba(0, 0, 0, 1)"></path><path d="M143 445.5 a5.5 5.5 0 1 0 11 0 a5.5 5.5 0 1 0 -11 0zM77 676.5 a5.5 5.5 0 1 0 11 0 a5.5 5.5 0 1 0 -11 0z" fill="rgba(0, 0, 0, 1)"></path><path d="M1435.5 1072.5L1369.5 1072.5L1237.5 1204.5" stroke-width="5.5" stroke="rgba(0, 0, 0, 1)"></path><path d="M1430 1072.5 a5.5 5.5 0 1 0 11 0 a5.5 5.5 0 1 0 -11 0zM1232 1204.5 a5.5 5.5 0 1 0 11 0 a5.5 5.5 0 1 0 -11 0z" fill="rgba(0, 0, 0, 1)"></path><path d="M1369.5 1039.5L1468.5 940.5" stroke-width="5.5" stroke="rgba(0, 0, 0, 1)"></path><path d="M1364 1039.5 a5.5 5.5 0 1 0 11 0 a5.5 5.5 0 1 0 -11 0zM1463 940.5 a5.5 5.5 0 1 0 11 0 a5.5 5.5 0 1 0 -11 0z" fill="rgba(0, 0, 0, 1)"></path><path d="M1072.5 49.5L1006.5 49.5L973.5 82.5" stroke-width="5.5" stroke="rgba(0, 0, 0, 1)"></path><path d="M1067 49.5 a5.5 5.5 0 1 0 11 0 a5.5 5.5 0 1 0 -11 0zM968 82.5 a5.5 5.5 0 1 0 11 0 a5.5 5.5 0 1 0 -11 0z" fill="rgba(0, 0, 0, 1)"></path><path d="M1237.5 973.5L1105.5 1105.5L1105.5 1138.5" stroke-width="5.5" stroke="rgba(0, 0, 0, 1)"></path><path d="M1232 973.5 a5.5 5.5 0 1 0 11 0 a5.5 5.5 0 1 0 -11 0zM1100 1138.5 a5.5 5.5 0 1 0 11 0 a5.5 5.5 0 1 0 -11 0z" fill="rgba(0, 0, 0, 1)"></path><path d="M1171.5 511.5L1171.5 379.5" stroke-width="5.5" stroke="rgba(0, 0, 0, 1)"></path><path d="M1166 511.5 a5.5 5.5 0 1 0 11 0 a5.5 5.5 0 1 0 -11 0zM1166 379.5 a5.5 5.5 0 1 0 11 0 a5.5 5.5 0 1 0 -11 0z" fill="rgba(0, 0, 0, 1)"></path><path d="M1798.5 280.5L1765.5 280.5L1567.5 82.5" stroke-width="5.5" stroke="rgba(0, 0, 0, 1)"></path><path d="M1793 280.5 a5.5 5.5 0 1 0 11 0 a5.5 5.5 0 1 0 -11 0zM1562 82.5 a5.5 5.5 0 1 0 11 0 a5.5 5.5 0 1 0 -11 0z" fill="rgba(0, 0, 0, 1)"></path><path d="M1666.5 643.5L1534.5 511.5L1534.5 478.5" stroke-width="5.5" stroke="rgba(0, 0, 0, 1)"></path><path d="M1661 643.5 a5.5 5.5 0 1 0 11 0 a5.5 5.5 0 1 0 -11 0zM1529 478.5 a5.5 5.5 0 1 0 11 0 a5.5 5.5 0 1 0 -11 0z" fill="rgba(0, 0, 0, 1)"></path><path d="M148.5 874.5L181.5 841.5L247.5 841.5" stroke-width="5.5" stroke="rgba(0, 0, 0, 1)"></path><path d="M143 874.5 a5.5 5.5 0 1 0 11 0 a5.5 5.5 0 1 0 -11 0zM242 841.5 a5.5 5.5 0 1 0 11 0 a5.5 5.5 0 1 0 -11 0z" fill="rgba(0, 0, 0, 1)"></path><path d="M49.5 1105.5L16.5 1072.5L16.5 1039.5" stroke-width="5.5" stroke="rgba(0, 0, 0, 1)"></path><path d="M44 1105.5 a5.5 5.5 0 1 0 11 0 a5.5 5.5 0 1 0 -11 0zM11 1039.5 a5.5 5.5 0 1 0 11 0 a5.5 5.5 0 1 0 -11 0z" fill="rgba(0, 0, 0, 1)"></path><path d="M1765.5 49.5L1930.5 214.5L1930.5 478.5L1831.5 577.5L1732.5 577.5" stroke-width="5.5" stroke="rgba(0, 0, 0, 1)"></path><path d="M1760 49.5 a5.5 5.5 0 1 0 11 0 a5.5 5.5 0 1 0 -11 0zM1727 577.5 a5.5 5.5 0 1 0 11 0 a5.5 5.5 0 1 0 -11 0z" fill="rgba(0, 0, 0, 1)"></path><path d="M1138.5 973.5L1039.5 1072.5L1039.5 1171.5" stroke-width="5.5" stroke="rgba(0, 0, 0, 1)"></path><path d="M1133 973.5 a5.5 5.5 0 1 0 11 0 a5.5 5.5 0 1 0 -11 0zM1034 1171.5 a5.5 5.5 0 1 0 11 0 a5.5 5.5 0 1 0 -11 0z" fill="rgba(0, 0, 0, 1)"></path><path d="M907.5 379.5L1039.5 379.5" stroke-width="5.5" stroke="rgba(0, 0, 0, 1)"></path><path d="M902 379.5 a5.5 5.5 0 1 0 11 0 a5.5 5.5 0 1 0 -11 0zM1034 379.5 a5.5 5.5 0 1 0 11 0 a5.5 5.5 0 1 0 -11 0z" fill="rgba(0, 0, 0, 1)"></path><path d="M1237.5 214.5L1369.5 346.5L1402.5 346.5L1468.5 280.5L1468.5 214.5" stroke-width="5.5" stroke="rgba(0, 0, 0, 1)"></path><path d="M1232 214.5 a5.5 5.5 0 1 0 11 0 a5.5 5.5 0 1 0 -11 0zM1463 214.5 a5.5 5.5 0 1 0 11 0 a5.5 5.5 0 1 0 -11 0z" fill="rgba(0, 0, 0, 1)"></path><path d="M82.5 82.5L82.5 148.5" stroke-width="5.5" stroke="rgba(0, 0, 0, 1)"></path><path d="M77 82.5 a5.5 5.5 0 1 0 11 0 a5.5 5.5 0 1 0 -11 0zM77 148.5 a5.5 5.5 0 1 0 11 0 a5.5 5.5 0 1 0 -11 0z" fill="rgba(0, 0, 0, 1)"></path><path d="M1534.5 577.5L1567.5 577.5L1699.5 709.5L1798.5 709.5" stroke-width="5.5" stroke="rgba(0, 0, 0, 1)"></path><path d="M1529 577.5 a5.5 5.5 0 1 0 11 0 a5.5 5.5 0 1 0 -11 0zM1793 709.5 a5.5 5.5 0 1 0 11 0 a5.5 5.5 0 1 0 -11 0z" fill="rgba(0, 0, 0, 1)"></path><path d="M214.5 775.5L247.5 742.5L247.5 577.5" stroke-width="5.5" stroke="rgba(0, 0, 0, 1)"></path><path d="M209 775.5 a5.5 5.5 0 1 0 11 0 a5.5 5.5 0 1 0 -11 0zM242 577.5 a5.5 5.5 0 1 0 11 0 a5.5 5.5 0 1 0 -11 0z" fill="rgba(0, 0, 0, 1)"></path><path d="M610.5 82.5L544.5 82.5" stroke-width="5.5" stroke="rgba(0, 0, 0, 1)"></path><path d="M605 82.5 a5.5 5.5 0 1 0 11 0 a5.5 5.5 0 1 0 -11 0zM539 82.5 a5.5 5.5 0 1 0 11 0 a5.5 5.5 0 1 0 -11 0z" fill="rgba(0, 0, 0, 1)"></path><path d="M643.5 808.5L412.5 577.5" stroke-width="5.5" stroke="rgba(0, 0, 0, 1)"></path><path d="M638 808.5 a5.5 5.5 0 1 0 11 0 a5.5 5.5 0 1 0 -11 0zM407 577.5 a5.5 5.5 0 1 0 11 0 a5.5 5.5 0 1 0 -11 0z" fill="rgba(0, 0, 0, 1)"></path><path d="M49.5 49.5L49.5 115.5" stroke-width="5.5" stroke="rgba(0, 0, 0, 1)"></path><path d="M44 49.5 a5.5 5.5 0 1 0 11 0 a5.5 5.5 0 1 0 -11 0zM44 115.5 a5.5 5.5 0 1 0 11 0 a5.5 5.5 0 1 0 -11 0z" fill="rgba(0, 0, 0, 1)"></path><path d="M1237.5 478.5L1336.5 379.5L1369.5 379.5" stroke-width="5.5" stroke="rgba(0, 0, 0, 1)"></path><path d="M1232 478.5 a5.5 5.5 0 1 0 11 0 a5.5 5.5 0 1 0 -11 0zM1364 379.5 a5.5 5.5 0 1 0 11 0 a5.5 5.5 0 1 0 -11 0z" fill="rgba(0, 0, 0, 1)"></path><path d="M1567.5 1237.5L1897.5 907.5L1897.5 808.5" stroke-width="5.5" stroke="rgba(0, 0, 0, 1)"></path><path d="M1562 1237.5 a5.5 5.5 0 1 0 11 0 a5.5 5.5 0 1 0 -11 0zM1892 808.5 a5.5 5.5 0 1 0 11 0 a5.5 5.5 0 1 0 -11 0z" fill="rgba(0, 0, 0, 1)"></path><path d="M181.5 676.5L214.5 643.5L214.5 610.5" stroke-width="5.5" stroke="rgba(0, 0, 0, 1)"></path><path d="M176 676.5 a5.5 5.5 0 1 0 11 0 a5.5 5.5 0 1 0 -11 0zM209 610.5 a5.5 5.5 0 1 0 11 0 a5.5 5.5 0 1 0 -11 0z" fill="rgba(0, 0, 0, 1)"></path><path d="M1699.5 1138.5L1699.5 1204.5L1666.5 1237.5L1633.5 1237.5" stroke-width="5.5" stroke="rgba(0, 0, 0, 1)"></path><path d="M1694 1138.5 a5.5 5.5 0 1 0 11 0 a5.5 5.5 0 1 0 -11 0zM1628 1237.5 a5.5 5.5 0 1 0 11 0 a5.5 5.5 0 1 0 -11 0z" fill="rgba(0, 0, 0, 1)"></path><path d="M148.5 511.5L82.5 445.5L82.5 214.5" stroke-width="5.5" stroke="rgba(0, 0, 0, 1)"></path><path d="M143 511.5 a5.5 5.5 0 1 0 11 0 a5.5 5.5 0 1 0 -11 0zM77 214.5 a5.5 5.5 0 1 0 11 0 a5.5 5.5 0 1 0 -11 0z" fill="rgba(0, 0, 0, 1)"></path><path d="M181.5 544.5L82.5 643.5" stroke-width="5.5" stroke="rgba(0, 0, 0, 1)"></path><path d="M176 544.5 a5.5 5.5 0 1 0 11 0 a5.5 5.5 0 1 0 -11 0zM77 643.5 a5.5 5.5 0 1 0 11 0 a5.5 5.5 0 1 0 -11 0z" fill="rgba(0, 0, 0, 1)"></path><path d="M16.5 874.5L214.5 676.5" stroke-width="5.5" stroke="rgba(0, 0, 0, 1)"></path><path d="M11 874.5 a5.5 5.5 0 1 0 11 0 a5.5 5.5 0 1 0 -11 0zM209 676.5 a5.5 5.5 0 1 0 11 0 a5.5 5.5 0 1 0 -11 0z" fill="rgba(0, 0, 0, 1)"></path><path d="M1270.5 313.5L1204.5 247.5L1204.5 49.5" stroke-width="5.5" stroke="rgba(0, 0, 0, 1)"></path><path d="M1265 313.5 a5.5 5.5 0 1 0 11 0 a5.5 5.5 0 1 0 -11 0zM1199 49.5 a5.5 5.5 0 1 0 11 0 a5.5 5.5 0 1 0 -11 0z" fill="rgba(0, 0, 0, 1)"></path><path d="M478.5 379.5L511.5 346.5L544.5 346.5" stroke-width="5.5" stroke="rgba(0, 0, 0, 1)"></path><path d="M473 379.5 a5.5 5.5 0 1 0 11 0 a5.5 5.5 0 1 0 -11 0zM539 346.5 a5.5 5.5 0 1 0 11 0 a5.5 5.5 0 1 0 -11 0z" fill="rgba(0, 0, 0, 1)"></path><path d="M709.5 940.5L709.5 973.5L577.5 1105.5L577.5 1270.5" stroke-width="5.5" stroke="rgba(0, 0, 0, 1)"></path><path d="M704 940.5 a5.5 5.5 0 1 0 11 0 a5.5 5.5 0 1 0 -11 0zM572 1270.5 a5.5 5.5 0 1 0 11 0 a5.5 5.5 0 1 0 -11 0z" fill="rgba(0, 0, 0, 1)"></path><path d="M907.5 1105.5L907.5 1138.5L1006.5 1237.5L1039.5 1237.5" stroke-width="5.5" stroke="rgba(0, 0, 0, 1)"></path><path d="M902 1105.5 a5.5 5.5 0 1 0 11 0 a5.5 5.5 0 1 0 -11 0zM1034 1237.5 a5.5 5.5 0 1 0 11 0 a5.5 5.5 0 1 0 -11 0z" fill="rgba(0, 0, 0, 1)"></path><path d="M181.5 808.5L115.5 808.5L16.5 907.5L16.5 973.5" stroke-width="5.5" stroke="rgba(0, 0, 0, 1)"></path><path d="M176 808.5 a5.5 5.5 0 1 0 11 0 a5.5 5.5 0 1 0 -11 0zM11 973.5 a5.5 5.5 0 1 0 11 0 a5.5 5.5 0 1 0 -11 0z" fill="rgba(0, 0, 0, 1)"></path><path d="M1930.5 643.5L1831.5 643.5" stroke-width="5.5" stroke="rgba(0, 0, 0, 1)"></path><path d="M1925 643.5 a5.5 5.5 0 1 0 11 0 a5.5 5.5 0 1 0 -11 0zM1826 643.5 a5.5 5.5 0 1 0 11 0 a5.5 5.5 0 1 0 -11 0z" fill="rgba(0, 0, 0, 1)"></path><path d="M907.5 940.5L1006.5 841.5L1006.5 808.5L973.5 775.5" stroke-width="5.5" stroke="rgba(0, 0, 0, 1)"></path><path d="M902 940.5 a5.5 5.5 0 1 0 11 0 a5.5 5.5 0 1 0 -11 0zM968 775.5 a5.5 5.5 0 1 0 11 0 a5.5 5.5 0 1 0 -11 0z" fill="rgba(0, 0, 0, 1)"></path><path d="M1600.5 1072.5L1600.5 907.5" stroke-width="5.5" stroke="rgba(0, 0, 0, 1)"></path><path d="M1595 1072.5 a5.5 5.5 0 1 0 11 0 a5.5 5.5 0 1 0 -11 0zM1595 907.5 a5.5 5.5 0 1 0 11 0 a5.5 5.5 0 1 0 -11 0z" fill="rgba(0, 0, 0, 1)"></path><path d="M1270.5 379.5L1237.5 379.5L1204.5 412.5L1204.5 544.5L1138.5 610.5L1039.5 610.5L1006.5 643.5" stroke-width="5.5" stroke="rgba(0, 0, 0, 1)"></path><path d="M1265 379.5 a5.5 5.5 0 1 0 11 0 a5.5 5.5 0 1 0 -11 0zM1001 643.5 a5.5 5.5 0 1 0 11 0 a5.5 5.5 0 1 0 -11 0z" fill="rgba(0, 0, 0, 1)"></path><path d="M874.5 1171.5L940.5 1237.5L973.5 1237.5" stroke-width="5.5" stroke="rgba(0, 0, 0, 1)"></path><path d="M869 1171.5 a5.5 5.5 0 1 0 11 0 a5.5 5.5 0 1 0 -11 0zM968 1237.5 a5.5 5.5 0 1 0 11 0 a5.5 5.5 0 1 0 -11 0z" fill="rgba(0, 0, 0, 1)"></path><path d="M1105.5 742.5L1006.5 742.5" stroke-width="5.5" stroke="rgba(0, 0, 0, 1)"></path><path d="M1100 742.5 a5.5 5.5 0 1 0 11 0 a5.5 5.5 0 1 0 -11 0zM1001 742.5 a5.5 5.5 0 1 0 11 0 a5.5 5.5 0 1 0 -11 0z" fill="rgba(0, 0, 0, 1)"></path><path d="M1006.5 511.5L1006.5 544.5L874.5 676.5L808.5 676.5" stroke-width="5.5" stroke="rgba(0, 0, 0, 1)"></path><path d="M1001 511.5 a5.5 5.5 0 1 0 11 0 a5.5 5.5 0 1 0 -11 0zM803 676.5 a5.5 5.5 0 1 0 11 0 a5.5 5.5 0 1 0 -11 0z" fill="rgba(0, 0, 0, 1)"></path><path d="M742.5 610.5L775.5 610.5L841.5 544.5L841.5 280.5L709.5 148.5L676.5 148.5" stroke-width="5.5" stroke="rgba(0, 0, 0, 1)"></path><path d="M737 610.5 a5.5 5.5 0 1 0 11 0 a5.5 5.5 0 1 0 -11 0zM671 148.5 a5.5 5.5 0 1 0 11 0 a5.5 5.5 0 1 0 -11 0z" fill="rgba(0, 0, 0, 1)"></path><path d="M412.5 313.5L379.5 346.5L247.5 346.5" stroke-width="5.5" stroke="rgba(0, 0, 0, 1)"></path><path d="M407 313.5 a5.5 5.5 0 1 0 11 0 a5.5 5.5 0 1 0 -11 0zM242 346.5 a5.5 5.5 0 1 0 11 0 a5.5 5.5 0 1 0 -11 0z" fill="rgba(0, 0, 0, 1)"></path><path d="M709.5 1039.5L709.5 1006.5L742.5 973.5" stroke-width="5.5" stroke="rgba(0, 0, 0, 1)"></path><path d="M704 1039.5 a5.5 5.5 0 1 0 11 0 a5.5 5.5 0 1 0 -11 0zM737 973.5 a5.5 5.5 0 1 0 11 0 a5.5 5.5 0 1 0 -11 0z" fill="rgba(0, 0, 0, 1)"></path><path d="M1831.5 313.5L1831.5 214.5" stroke-width="5.5" stroke="rgba(0, 0, 0, 1)"></path><path d="M1826 313.5 a5.5 5.5 0 1 0 11 0 a5.5 5.5 0 1 0 -11 0zM1826 214.5 a5.5 5.5 0 1 0 11 0 a5.5 5.5 0 1 0 -11 0z" fill="rgba(0, 0, 0, 1)"></path><path d="M940.5 1072.5L1006.5 1138.5" stroke-width="5.5" stroke="rgba(0, 0, 0, 1)"></path><path d="M935 1072.5 a5.5 5.5 0 1 0 11 0 a5.5 5.5 0 1 0 -11 0zM1001 1138.5 a5.5 5.5 0 1 0 11 0 a5.5 5.5 0 1 0 -11 0z" fill="rgba(0, 0, 0, 1)"></path><path d="M148.5 841.5L82.5 907.5L49.5 907.5" stroke-width="5.5" stroke="rgba(0, 0, 0, 1)"></path><path d="M143 841.5 a5.5 5.5 0 1 0 11 0 a5.5 5.5 0 1 0 -11 0zM44 907.5 a5.5 5.5 0 1 0 11 0 a5.5 5.5 0 1 0 -11 0z" fill="rgba(0, 0, 0, 1)"></path><path d="M775.5 1105.5L775.5 1138.5L643.5 1270.5L610.5 1270.5" stroke-width="5.5" stroke="rgba(0, 0, 0, 1)"></path><path d="M770 1105.5 a5.5 5.5 0 1 0 11 0 a5.5 5.5 0 1 0 -11 0zM605 1270.5 a5.5 5.5 0 1 0 11 0 a5.5 5.5 0 1 0 -11 0z" fill="rgba(0, 0, 0, 1)"></path><path d="M82.5 544.5L82.5 478.5" stroke-width="5.5" stroke="rgba(0, 0, 0, 1)"></path><path d="M77 544.5 a5.5 5.5 0 1 0 11 0 a5.5 5.5 0 1 0 -11 0zM77 478.5 a5.5 5.5 0 1 0 11 0 a5.5 5.5 0 1 0 -11 0z" fill="rgba(0, 0, 0, 1)"></path><path d="M544.5 247.5L577.5 280.5L643.5 280.5L676.5 313.5" stroke-width="5.5" stroke="rgba(0, 0, 0, 1)"></path><path d="M539 247.5 a5.5 5.5 0 1 0 11 0 a5.5 5.5 0 1 0 -11 0zM671 313.5 a5.5 5.5 0 1 0 11 0 a5.5 5.5 0 1 0 -11 0z" fill="rgba(0, 0, 0, 1)"></path><path d="M49.5 1204.5L82.5 1204.5L115.5 1171.5L115.5 1138.5L49.5 1072.5L49.5 1039.5" stroke-width="5.5" stroke="rgba(0, 0, 0, 1)"></path><path d="M44 1204.5 a5.5 5.5 0 1 0 11 0 a5.5 5.5 0 1 0 -11 0zM44 1039.5 a5.5 5.5 0 1 0 11 0 a5.5 5.5 0 1 0 -11 0z" fill="rgba(0, 0, 0, 1)"></path><path d="M379.5 973.5L379.5 1006.5L478.5 1105.5L478.5 1270.5" stroke-width="5.5" stroke="rgba(0, 0, 0, 1)"></path><path d="M374 973.5 a5.5 5.5 0 1 0 11 0 a5.5 5.5 0 1 0 -11 0zM473 1270.5 a5.5 5.5 0 1 0 11 0 a5.5 5.5 0 1 0 -11 0z" fill="rgba(0, 0, 0, 1)"></path><path d="M16.5 808.5L16.5 511.5" stroke-width="5.5" stroke="rgba(0, 0, 0, 1)"></path><path d="M11 808.5 a5.5 5.5 0 1 0 11 0 a5.5 5.5 0 1 0 -11 0zM11 511.5 a5.5 5.5 0 1 0 11 0 a5.5 5.5 0 1 0 -11 0z" fill="rgba(0, 0, 0, 1)"></path><path d="M280.5 148.5L148.5 16.5L82.5 16.5" stroke-width="5.5" stroke="rgba(0, 0, 0, 1)"></path><path d="M275 148.5 a5.5 5.5 0 1 0 11 0 a5.5 5.5 0 1 0 -11 0zM77 16.5 a5.5 5.5 0 1 0 11 0 a5.5 5.5 0 1 0 -11 0z" fill="rgba(0, 0, 0, 1)"></path><path d="M412.5 478.5L478.5 544.5L610.5 544.5L643.5 511.5L643.5 346.5" stroke-width="5.5" stroke="rgba(0, 0, 0, 1)"></path><path d="M407 478.5 a5.5 5.5 0 1 0 11 0 a5.5 5.5 0 1 0 -11 0zM638 346.5 a5.5 5.5 0 1 0 11 0 a5.5 5.5 0 1 0 -11 0z" fill="rgba(0, 0, 0, 1)"></path><path d="M1237.5 940.5L1369.5 940.5L1435.5 874.5L1468.5 874.5" stroke-width="5.5" stroke="rgba(0, 0, 0, 1)"></path><path d="M1232 940.5 a5.5 5.5 0 1 0 11 0 a5.5 5.5 0 1 0 -11 0zM1463 874.5 a5.5 5.5 0 1 0 11 0 a5.5 5.5 0 1 0 -11 0z" fill="rgba(0, 0, 0, 1)"></path><path d="M1765.5 511.5L1699.5 577.5" stroke-width="5.5" stroke="rgba(0, 0, 0, 1)"></path><path d="M1760 511.5 a5.5 5.5 0 1 0 11 0 a5.5 5.5 0 1 0 -11 0zM1694 577.5 a5.5 5.5 0 1 0 11 0 a5.5 5.5 0 1 0 -11 0z" fill="rgba(0, 0, 0, 1)"></path><path d="M412.5 742.5L412.5 1006.5L478.5 1072.5" stroke-width="5.5" stroke="rgba(0, 0, 0, 1)"></path><path d="M407 742.5 a5.5 5.5 0 1 0 11 0 a5.5 5.5 0 1 0 -11 0zM473 1072.5 a5.5 5.5 0 1 0 11 0 a5.5 5.5 0 1 0 -11 0z" fill="rgba(0, 0, 0, 1)"></path><path d="M1105.5 445.5L1039.5 445.5L1006.5 478.5" stroke-width="5.5" stroke="rgba(0, 0, 0, 1)"></path><path d="M1100 445.5 a5.5 5.5 0 1 0 11 0 a5.5 5.5 0 1 0 -11 0zM1001 478.5 a5.5 5.5 0 1 0 11 0 a5.5 5.5 0 1 0 -11 0z" fill="rgba(0, 0, 0, 1)"></path><path d="M247.5 16.5L346.5 16.5" stroke-width="5.5" stroke="rgba(0, 0, 0, 1)"></path><path d="M242 16.5 a5.5 5.5 0 1 0 11 0 a5.5 5.5 0 1 0 -11 0zM341 16.5 a5.5 5.5 0 1 0 11 0 a5.5 5.5 0 1 0 -11 0z" fill="rgba(0, 0, 0, 1)"></path><path d="M1369.5 280.5L1369.5 148.5L1270.5 49.5L1237.5 49.5" stroke-width="5.5" stroke="rgba(0, 0, 0, 1)"></path><path d="M1364 280.5 a5.5 5.5 0 1 0 11 0 a5.5 5.5 0 1 0 -11 0zM1232 49.5 a5.5 5.5 0 1 0 11 0 a5.5 5.5 0 1 0 -11 0z" fill="rgba(0, 0, 0, 1)"></path><path d="M1435.5 280.5L1402.5 313.5L1369.5 313.5" stroke-width="5.5" stroke="rgba(0, 0, 0, 1)"></path><path d="M1430 280.5 a5.5 5.5 0 1 0 11 0 a5.5 5.5 0 1 0 -11 0zM1364 313.5 a5.5 5.5 0 1 0 11 0 a5.5 5.5 0 1 0 -11 0z" fill="rgba(0, 0, 0, 1)"></path><path d="M1666.5 907.5L1699.5 940.5L1732.5 940.5" stroke-width="5.5" stroke="rgba(0, 0, 0, 1)"></path><path d="M1661 907.5 a5.5 5.5 0 1 0 11 0 a5.5 5.5 0 1 0 -11 0zM1727 940.5 a5.5 5.5 0 1 0 11 0 a5.5 5.5 0 1 0 -11 0z" fill="rgba(0, 0, 0, 1)"></path><path d="M973.5 1006.5L1039.5 940.5L1204.5 940.5" stroke-width="5.5" stroke="rgba(0, 0, 0, 1)"></path><path d="M968 1006.5 a5.5 5.5 0 1 0 11 0 a5.5 5.5 0 1 0 -11 0zM1199 940.5 a5.5 5.5 0 1 0 11 0 a5.5 5.5 0 1 0 -11 0z" fill="rgba(0, 0, 0, 1)"></path><path d="M1105.5 1039.5L1138.5 1039.5L1204.5 973.5" stroke-width="5.5" stroke="rgba(0, 0, 0, 1)"></path><path d="M1100 1039.5 a5.5 5.5 0 1 0 11 0 a5.5 5.5 0 1 0 -11 0zM1199 973.5 a5.5 5.5 0 1 0 11 0 a5.5 5.5 0 1 0 -11 0z" fill="rgba(0, 0, 0, 1)"></path><path d="M445.5 973.5L478.5 1006.5L511.5 1006.5L544.5 973.5L544.5 874.5" stroke-width="5.5" stroke="rgba(0, 0, 0, 1)"></path><path d="M440 973.5 a5.5 5.5 0 1 0 11 0 a5.5 5.5 0 1 0 -11 0zM539 874.5 a5.5 5.5 0 1 0 11 0 a5.5 5.5 0 1 0 -11 0z" fill="rgba(0, 0, 0, 1)"></path><path d="M1402.5 478.5L1402.5 412.5L1501.5 313.5L1501.5 214.5" stroke-width="5.5" stroke="rgba(0, 0, 0, 1)"></path><path d="M1397 478.5 a5.5 5.5 0 1 0 11 0 a5.5 5.5 0 1 0 -11 0zM1496 214.5 a5.5 5.5 0 1 0 11 0 a5.5 5.5 0 1 0 -11 0z" fill="rgba(0, 0, 0, 1)"></path><path d="M1666.5 346.5L1897.5 346.5" stroke-width="5.5" stroke="rgba(0, 0, 0, 1)"></path><path d="M1661 346.5 a5.5 5.5 0 1 0 11 0 a5.5 5.5 0 1 0 -11 0zM1892 346.5 a5.5 5.5 0 1 0 11 0 a5.5 5.5 0 1 0 -11 0z" fill="rgba(0, 0, 0, 1)"></path><path d="M82.5 940.5L115.5 907.5L181.5 907.5L214.5 874.5L247.5 874.5" stroke-width="5.5" stroke="rgba(0, 0, 0, 1)"></path><path d="M77 940.5 a5.5 5.5 0 1 0 11 0 a5.5 5.5 0 1 0 -11 0zM242 874.5 a5.5 5.5 0 1 0 11 0 a5.5 5.5 0 1 0 -11 0z" fill="rgba(0, 0, 0, 1)"></path><path d="M1666.5 445.5L1567.5 445.5" stroke-width="5.5" stroke="rgba(0, 0, 0, 1)"></path><path d="M1661 445.5 a5.5 5.5 0 1 0 11 0 a5.5 5.5 0 1 0 -11 0zM1562 445.5 a5.5 5.5 0 1 0 11 0 a5.5 5.5 0 1 0 -11 0z" fill="rgba(0, 0, 0, 1)"></path><path d="M247.5 973.5L247.5 1204.5" stroke-width="5.5" stroke="rgba(0, 0, 0, 1)"></path><path d="M242 973.5 a5.5 5.5 0 1 0 11 0 a5.5 5.5 0 1 0 -11 0zM242 1204.5 a5.5 5.5 0 1 0 11 0 a5.5 5.5 0 1 0 -11 0z" fill="rgba(0, 0, 0, 1)"></path><path d="M1930.5 16.5L1864.5 82.5L1831.5 82.5L1765.5 16.5L1732.5 16.5" stroke-width="5.5" stroke="rgba(0, 0, 0, 1)"></path><path d="M1925 16.5 a5.5 5.5 0 1 0 11 0 a5.5 5.5 0 1 0 -11 0zM1727 16.5 a5.5 5.5 0 1 0 11 0 a5.5 5.5 0 1 0 -11 0z" fill="rgba(0, 0, 0, 1)"></path><path d="M1732.5 775.5L1105.5 775.5" stroke-width="5.5" stroke="rgba(0, 0, 0, 1)"></path><path d="M1727 775.5 a5.5 5.5 0 1 0 11 0 a5.5 5.5 0 1 0 -11 0zM1100 775.5 a5.5 5.5 0 1 0 11 0 a5.5 5.5 0 1 0 -11 0z" fill="rgba(0, 0, 0, 1)"></path><path d="M1864.5 973.5L1732.5 1105.5L1732.5 1204.5" stroke-width="5.5" stroke="rgba(0, 0, 0, 1)"></path><path d="M1859 973.5 a5.5 5.5 0 1 0 11 0 a5.5 5.5 0 1 0 -11 0zM1727 1204.5 a5.5 5.5 0 1 0 11 0 a5.5 5.5 0 1 0 -11 0z" fill="rgba(0, 0, 0, 1)"></path><path d="M1402.5 1105.5L1468.5 1105.5" stroke-width="5.5" stroke="rgba(0, 0, 0, 1)"></path><path d="M1397 1105.5 a5.5 5.5 0 1 0 11 0 a5.5 5.5 0 1 0 -11 0zM1463 1105.5 a5.5 5.5 0 1 0 11 0 a5.5 5.5 0 1 0 -11 0z" fill="rgba(0, 0, 0, 1)"></path><path d="M379.5 1171.5L445.5 1171.5" stroke-width="5.5" stroke="rgba(0, 0, 0, 1)"></path><path d="M374 1171.5 a5.5 5.5 0 1 0 11 0 a5.5 5.5 0 1 0 -11 0zM440 1171.5 a5.5 5.5 0 1 0 11 0 a5.5 5.5 0 1 0 -11 0z" fill="rgba(0, 0, 0, 1)"></path><path d="M1930.5 610.5L1930.5 544.5" stroke-width="5.5" stroke="rgba(0, 0, 0, 1)"></path><path d="M1925 610.5 a5.5 5.5 0 1 0 11 0 a5.5 5.5 0 1 0 -11 0zM1925 544.5 a5.5 5.5 0 1 0 11 0 a5.5 5.5 0 1 0 -11 0z" fill="rgba(0, 0, 0, 1)"></path><path d="M1303.5 1204.5L1468.5 1204.5" stroke-width="5.5" stroke="rgba(0, 0, 0, 1)"></path><path d="M1298 1204.5 a5.5 5.5 0 1 0 11 0 a5.5 5.5 0 1 0 -11 0zM1463 1204.5 a5.5 5.5 0 1 0 11 0 a5.5 5.5 0 1 0 -11 0z" fill="rgba(0, 0, 0, 1)"></path><path d="M610.5 643.5L577.5 610.5L478.5 610.5" stroke-width="5.5" stroke="rgba(0, 0, 0, 1)"></path><path d="M605 643.5 a5.5 5.5 0 1 0 11 0 a5.5 5.5 0 1 0 -11 0zM473 610.5 a5.5 5.5 0 1 0 11 0 a5.5 5.5 0 1 0 -11 0z" fill="rgba(0, 0, 0, 1)"></path><path d="M346.5 1171.5L412.5 1237.5L412.5 1270.5" stroke-width="5.5" stroke="rgba(0, 0, 0, 1)"></path><path d="M341 1171.5 a5.5 5.5 0 1 0 11 0 a5.5 5.5 0 1 0 -11 0zM407 1270.5 a5.5 5.5 0 1 0 11 0 a5.5 5.5 0 1 0 -11 0z" fill="rgba(0, 0, 0, 1)"></path><path d="M1006.5 214.5L973.5 181.5L973.5 148.5" stroke-width="5.5" stroke="rgba(0, 0, 0, 1)"></path><path d="M1001 214.5 a5.5 5.5 0 1 0 11 0 a5.5 5.5 0 1 0 -11 0zM968 148.5 a5.5 5.5 0 1 0 11 0 a5.5 5.5 0 1 0 -11 0z" fill="rgba(0, 0, 0, 1)"></path><path d="M148.5 412.5L181.5 445.5L280.5 445.5" stroke-width="5.5" stroke="rgba(0, 0, 0, 1)"></path><path d="M143 412.5 a5.5 5.5 0 1 0 11 0 a5.5 5.5 0 1 0 -11 0zM275 445.5 a5.5 5.5 0 1 0 11 0 a5.5 5.5 0 1 0 -11 0z" fill="rgba(0, 0, 0, 1)"></path><path d="M82.5 1138.5L49.5 1138.5L16.5 1105.5" stroke-width="5.5" stroke="rgba(0, 0, 0, 1)"></path><path d="M77 1138.5 a5.5 5.5 0 1 0 11 0 a5.5 5.5 0 1 0 -11 0zM11 1105.5 a5.5 5.5 0 1 0 11 0 a5.5 5.5 0 1 0 -11 0z" fill="rgba(0, 0, 0, 1)"></path><path d="M511.5 1270.5L511.5 1204.5" stroke-width="5.5" stroke="rgba(0, 0, 0, 1)"></path><path d="M506 1270.5 a5.5 5.5 0 1 0 11 0 a5.5 5.5 0 1 0 -11 0zM506 1204.5 a5.5 5.5 0 1 0 11 0 a5.5 5.5 0 1 0 -11 0z" fill="rgba(0, 0, 0, 1)"></path><path d="M1270.5 181.5L1270.5 214.5L1336.5 280.5" stroke-width="5.5" stroke="rgba(0, 0, 0, 1)"></path><path d="M1265 181.5 a5.5 5.5 0 1 0 11 0 a5.5 5.5 0 1 0 -11 0zM1331 280.5 a5.5 5.5 0 1 0 11 0 a5.5 5.5 0 1 0 -11 0z" fill="rgba(0, 0, 0, 1)"></path><path d="M940.5 841.5L940.5 874.5L841.5 973.5" stroke-width="5.5" stroke="rgba(0, 0, 0, 1)"></path><path d="M935 841.5 a5.5 5.5 0 1 0 11 0 a5.5 5.5 0 1 0 -11 0zM836 973.5 a5.5 5.5 0 1 0 11 0 a5.5 5.5 0 1 0 -11 0z" fill="rgba(0, 0, 0, 1)"></path><path d="M1006.5 1006.5L973.5 1039.5L907.5 1039.5L874.5 1006.5L874.5 973.5" stroke-width="5.5" stroke="rgba(0, 0, 0, 1)"></path><path d="M1001 1006.5 a5.5 5.5 0 1 0 11 0 a5.5 5.5 0 1 0 -11 0zM869 973.5 a5.5 5.5 0 1 0 11 0 a5.5 5.5 0 1 0 -11 0z" fill="rgba(0, 0, 0, 1)"></path><path d="M808.5 1072.5L808.5 1006.5" stroke-width="5.5" stroke="rgba(0, 0, 0, 1)"></path><path d="M803 1072.5 a5.5 5.5 0 1 0 11 0 a5.5 5.5 0 1 0 -11 0zM803 1006.5 a5.5 5.5 0 1 0 11 0 a5.5 5.5 0 1 0 -11 0z" fill="rgba(0, 0, 0, 1)"></path><path d="M1633.5 214.5L1633.5 181.5L1567.5 115.5" stroke-width="5.5" stroke="rgba(0, 0, 0, 1)"></path><path d="M1628 214.5 a5.5 5.5 0 1 0 11 0 a5.5 5.5 0 1 0 -11 0zM1562 115.5 a5.5 5.5 0 1 0 11 0 a5.5 5.5 0 1 0 -11 0z" fill="rgba(0, 0, 0, 1)"></path><path d="M445.5 709.5L445.5 643.5L412.5 610.5" stroke-width="5.5" stroke="rgba(0, 0, 0, 1)"></path><path d="M440 709.5 a5.5 5.5 0 1 0 11 0 a5.5 5.5 0 1 0 -11 0zM407 610.5 a5.5 5.5 0 1 0 11 0 a5.5 5.5 0 1 0 -11 0z" fill="rgba(0, 0, 0, 1)"></path><path d="M907.5 49.5L907.5 115.5" stroke-width="5.5" stroke="rgba(0, 0, 0, 1)"></path><path d="M902 49.5 a5.5 5.5 0 1 0 11 0 a5.5 5.5 0 1 0 -11 0zM902 115.5 a5.5 5.5 0 1 0 11 0 a5.5 5.5 0 1 0 -11 0z" fill="rgba(0, 0, 0, 1)"></path><path d="M379.5 247.5L379.5 313.5" stroke-width="5.5" stroke="rgba(0, 0, 0, 1)"></path><path d="M374 247.5 a5.5 5.5 0 1 0 11 0 a5.5 5.5 0 1 0 -11 0zM374 313.5 a5.5 5.5 0 1 0 11 0 a5.5 5.5 0 1 0 -11 0z" fill="rgba(0, 0, 0, 1)"></path><path d="M379.5 1270.5L379.5 1237.5L346.5 1204.5L313.5 1204.5L280.5 1237.5" stroke-width="5.5" stroke="rgba(0, 0, 0, 1)"></path><path d="M374 1270.5 a5.5 5.5 0 1 0 11 0 a5.5 5.5 0 1 0 -11 0zM275 1237.5 a5.5 5.5 0 1 0 11 0 a5.5 5.5 0 1 0 -11 0z" fill="rgba(0, 0, 0, 1)"></path><path d="M115.5 940.5L181.5 940.5" stroke-width="5.5" stroke="rgba(0, 0, 0, 1)"></path><path d="M110 940.5 a5.5 5.5 0 1 0 11 0 a5.5 5.5 0 1 0 -11 0zM176 940.5 a5.5 5.5 0 1 0 11 0 a5.5 5.5 0 1 0 -11 0z" fill="rgba(0, 0, 0, 1)"></path><path d="M1369.5 610.5L1435.5 544.5L1468.5 544.5" stroke-width="5.5" stroke="rgba(0, 0, 0, 1)"></path><path d="M1364 610.5 a5.5 5.5 0 1 0 11 0 a5.5 5.5 0 1 0 -11 0zM1463 544.5 a5.5 5.5 0 1 0 11 0 a5.5 5.5 0 1 0 -11 0z" fill="rgba(0, 0, 0, 1)"></path><path d="M478.5 775.5L478.5 676.5" stroke-width="5.5" stroke="rgba(0, 0, 0, 1)"></path><path d="M473 775.5 a5.5 5.5 0 1 0 11 0 a5.5 5.5 0 1 0 -11 0zM473 676.5 a5.5 5.5 0 1 0 11 0 a5.5 5.5 0 1 0 -11 0z" fill="rgba(0, 0, 0, 1)"></path><path d="M709.5 280.5L742.5 313.5L775.5 313.5L808.5 280.5" stroke-width="5.5" stroke="rgba(0, 0, 0, 1)"></path><path d="M704 280.5 a5.5 5.5 0 1 0 11 0 a5.5 5.5 0 1 0 -11 0zM803 280.5 a5.5 5.5 0 1 0 11 0 a5.5 5.5 0 1 0 -11 0z" fill="rgba(0, 0, 0, 1)"></path><path d="M511.5 214.5L445.5 148.5L445.5 115.5" stroke-width="5.5" stroke="rgba(0, 0, 0, 1)"></path><path d="M506 214.5 a5.5 5.5 0 1 0 11 0 a5.5 5.5 0 1 0 -11 0zM440 115.5 a5.5 5.5 0 1 0 11 0 a5.5 5.5 0 1 0 -11 0z" fill="rgba(0, 0, 0, 1)"></path><path d="M1303.5 148.5L1237.5 82.5" stroke-width="5.5" stroke="rgba(0, 0, 0, 1)"></path><path d="M1298 148.5 a5.5 5.5 0 1 0 11 0 a5.5 5.5 0 1 0 -11 0zM1232 82.5 a5.5 5.5 0 1 0 11 0 a5.5 5.5 0 1 0 -11 0z" fill="rgba(0, 0, 0, 1)"></path><path d="M214.5 115.5L280.5 181.5L280.5 214.5" stroke-width="5.5" stroke="rgba(0, 0, 0, 1)"></path><path d="M209 115.5 a5.5 5.5 0 1 0 11 0 a5.5 5.5 0 1 0 -11 0zM275 214.5 a5.5 5.5 0 1 0 11 0 a5.5 5.5 0 1 0 -11 0z" fill="rgba(0, 0, 0, 1)"></path><path d="M544.5 445.5L511.5 412.5L511.5 379.5" stroke-width="5.5" stroke="rgba(0, 0, 0, 1)"></path><path d="M539 445.5 a5.5 5.5 0 1 0 11 0 a5.5 5.5 0 1 0 -11 0zM506 379.5 a5.5 5.5 0 1 0 11 0 a5.5 5.5 0 1 0 -11 0z" fill="rgba(0, 0, 0, 1)"></path><path d="M643.5 874.5L643.5 1006.5" stroke-width="5.5" stroke="rgba(0, 0, 0, 1)"></path><path d="M638 874.5 a5.5 5.5 0 1 0 11 0 a5.5 5.5 0 1 0 -11 0zM638 1006.5 a5.5 5.5 0 1 0 11 0 a5.5 5.5 0 1 0 -11 0z" fill="rgba(0, 0, 0, 1)"></path><path d="M676.5 247.5L676.5 214.5L709.5 181.5" stroke-width="5.5" stroke="rgba(0, 0, 0, 1)"></path><path d="M671 247.5 a5.5 5.5 0 1 0 11 0 a5.5 5.5 0 1 0 -11 0zM704 181.5 a5.5 5.5 0 1 0 11 0 a5.5 5.5 0 1 0 -11 0z" fill="rgba(0, 0, 0, 1)"></path><path d="M1435.5 82.5L1402.5 82.5L1369.5 49.5" stroke-width="5.5" stroke="rgba(0, 0, 0, 1)"></path><path d="M1430 82.5 a5.5 5.5 0 1 0 11 0 a5.5 5.5 0 1 0 -11 0zM1364 49.5 a5.5 5.5 0 1 0 11 0 a5.5 5.5 0 1 0 -11 0z" fill="rgba(0, 0, 0, 1)"></path><path d="M1270.5 973.5L1270.5 1039.5L1237.5 1072.5L1171.5 1072.5L1138.5 1105.5L1138.5 1138.5" stroke-width="5.5" stroke="rgba(0, 0, 0, 1)"></path><path d="M1265 973.5 a5.5 5.5 0 1 0 11 0 a5.5 5.5 0 1 0 -11 0zM1133 1138.5 a5.5 5.5 0 1 0 11 0 a5.5 5.5 0 1 0 -11 0z" fill="rgba(0, 0, 0, 1)"></path><path d="M1666.5 247.5L1567.5 247.5" stroke-width="5.5" stroke="rgba(0, 0, 0, 1)"></path><path d="M1661 247.5 a5.5 5.5 0 1 0 11 0 a5.5 5.5 0 1 0 -11 0zM1562 247.5 a5.5 5.5 0 1 0 11 0 a5.5 5.5 0 1 0 -11 0z" fill="rgba(0, 0, 0, 1)"></path><path d="M610.5 478.5L610.5 346.5" stroke-width="5.5" stroke="rgba(0, 0, 0, 1)"></path><path d="M605 478.5 a5.5 5.5 0 1 0 11 0 a5.5 5.5 0 1 0 -11 0zM605 346.5 a5.5 5.5 0 1 0 11 0 a5.5 5.5 0 1 0 -11 0z" fill="rgba(0, 0, 0, 1)"></path><path d="M1765.5 676.5L1699.5 676.5" stroke-width="5.5" stroke="rgba(0, 0, 0, 1)"></path><path d="M1760 676.5 a5.5 5.5 0 1 0 11 0 a5.5 5.5 0 1 0 -11 0zM1694 676.5 a5.5 5.5 0 1 0 11 0 a5.5 5.5 0 1 0 -11 0z" fill="rgba(0, 0, 0, 1)"></path><path d="M1930.5 676.5L1897.5 676.5L1864.5 709.5" stroke-width="5.5" stroke="rgba(0, 0, 0, 1)"></path><path d="M1925 676.5 a5.5 5.5 0 1 0 11 0 a5.5 5.5 0 1 0 -11 0zM1859 709.5 a5.5 5.5 0 1 0 11 0 a5.5 5.5 0 1 0 -11 0z" fill="rgba(0, 0, 0, 1)"></path><path d="M1468.5 1006.5L1435.5 1039.5L1402.5 1039.5" stroke-width="5.5" stroke="rgba(0, 0, 0, 1)"></path><path d="M1463 1006.5 a5.5 5.5 0 1 0 11 0 a5.5 5.5 0 1 0 -11 0zM1397 1039.5 a5.5 5.5 0 1 0 11 0 a5.5 5.5 0 1 0 -11 0z" fill="rgba(0, 0, 0, 1)"></path><path d="M1600.5 709.5L1600.5 643.5L1567.5 610.5L1534.5 610.5" stroke-width="5.5" stroke="rgba(0, 0, 0, 1)"></path><path d="M1595 709.5 a5.5 5.5 0 1 0 11 0 a5.5 5.5 0 1 0 -11 0zM1529 610.5 a5.5 5.5 0 1 0 11 0 a5.5 5.5 0 1 0 -11 0z" fill="rgba(0, 0, 0, 1)"></path><path d="M808.5 49.5L874.5 49.5L907.5 16.5L973.5 16.5" stroke-width="5.5" stroke="rgba(0, 0, 0, 1)"></path><path d="M803 49.5 a5.5 5.5 0 1 0 11 0 a5.5 5.5 0 1 0 -11 0zM968 16.5 a5.5 5.5 0 1 0 11 0 a5.5 5.5 0 1 0 -11 0z" fill="rgba(0, 0, 0, 1)"></path><path d="M1270.5 841.5L1336.5 841.5" stroke-width="5.5" stroke="rgba(0, 0, 0, 1)"></path><path d="M1265 841.5 a5.5 5.5 0 1 0 11 0 a5.5 5.5 0 1 0 -11 0zM1331 841.5 a5.5 5.5 0 1 0 11 0 a5.5 5.5 0 1 0 -11 0z" fill="rgba(0, 0, 0, 1)"></path><path d="M82.5 1039.5L148.5 1039.5" stroke-width="5.5" stroke="rgba(0, 0, 0, 1)"></path><path d="M77 1039.5 a5.5 5.5 0 1 0 11 0 a5.5 5.5 0 1 0 -11 0zM143 1039.5 a5.5 5.5 0 1 0 11 0 a5.5 5.5 0 1 0 -11 0z" fill="rgba(0, 0, 0, 1)"></path><path d="M940.5 181.5L874.5 181.5" stroke-width="5.5" stroke="rgba(0, 0, 0, 1)"></path><path d="M935 181.5 a5.5 5.5 0 1 0 11 0 a5.5 5.5 0 1 0 -11 0zM869 181.5 a5.5 5.5 0 1 0 11 0 a5.5 5.5 0 1 0 -11 0z" fill="rgba(0, 0, 0, 1)"></path><path d="M280.5 49.5L214.5 49.5" stroke-width="5.5" stroke="rgba(0, 0, 0, 1)"></path><path d="M275 49.5 a5.5 5.5 0 1 0 11 0 a5.5 5.5 0 1 0 -11 0zM209 49.5 a5.5 5.5 0 1 0 11 0 a5.5 5.5 0 1 0 -11 0z" fill="rgba(0, 0, 0, 1)"></path><path d="M907.5 874.5L841.5 940.5L808.5 940.5" stroke-width="5.5" stroke="rgba(0, 0, 0, 1)"></path><path d="M902 874.5 a5.5 5.5 0 1 0 11 0 a5.5 5.5 0 1 0 -11 0zM803 940.5 a5.5 5.5 0 1 0 11 0 a5.5 5.5 0 1 0 -11 0z" fill="rgba(0, 0, 0, 1)"></path><path d="M544.5 676.5L643.5 676.5" stroke-width="5.5" stroke="rgba(0, 0, 0, 1)"></path><path d="M539 676.5 a5.5 5.5 0 1 0 11 0 a5.5 5.5 0 1 0 -11 0zM638 676.5 a5.5 5.5 0 1 0 11 0 a5.5 5.5 0 1 0 -11 0z" fill="rgba(0, 0, 0, 1)"></path><path d="M214.5 247.5L214.5 214.5L148.5 148.5" stroke-width="5.5" stroke="rgba(0, 0, 0, 1)"></path><path d="M209 247.5 a5.5 5.5 0 1 0 11 0 a5.5 5.5 0 1 0 -11 0zM143 148.5 a5.5 5.5 0 1 0 11 0 a5.5 5.5 0 1 0 -11 0z" fill="rgba(0, 0, 0, 1)"></path><path d="M1864.5 511.5L1798.5 445.5L1699.5 445.5L1633.5 511.5" stroke-width="5.5" stroke="rgba(0, 0, 0, 1)"></path><path d="M1859 511.5 a5.5 5.5 0 1 0 11 0 a5.5 5.5 0 1 0 -11 0zM1628 511.5 a5.5 5.5 0 1 0 11 0 a5.5 5.5 0 1 0 -11 0z" fill="rgba(0, 0, 0, 1)"></path><path d="M1699.5 148.5L1699.5 115.5L1666.5 82.5L1600.5 82.5" stroke-width="5.5" stroke="rgba(0, 0, 0, 1)"></path><path d="M1694 148.5 a5.5 5.5 0 1 0 11 0 a5.5 5.5 0 1 0 -11 0zM1595 82.5 a5.5 5.5 0 1 0 11 0 a5.5 5.5 0 1 0 -11 0z" fill="rgba(0, 0, 0, 1)"></path><path d="M709.5 1105.5L775.5 1039.5L775.5 1006.5" stroke-width="5.5" stroke="rgba(0, 0, 0, 1)"></path><path d="M704 1105.5 a5.5 5.5 0 1 0 11 0 a5.5 5.5 0 1 0 -11 0zM770 1006.5 a5.5 5.5 0 1 0 11 0 a5.5 5.5 0 1 0 -11 0z" fill="rgba(0, 0, 0, 1)"></path><path d="M181.5 115.5L115.5 49.5" stroke-width="5.5" stroke="rgba(0, 0, 0, 1)"></path><path d="M176 115.5 a5.5 5.5 0 1 0 11 0 a5.5 5.5 0 1 0 -11 0zM110 49.5 a5.5 5.5 0 1 0 11 0 a5.5 5.5 0 1 0 -11 0z" fill="rgba(0, 0, 0, 1)"></path><path d="M1402.5 247.5L1402.5 181.5" stroke-width="5.5" stroke="rgba(0, 0, 0, 1)"></path><path d="M1397 247.5 a5.5 5.5 0 1 0 11 0 a5.5 5.5 0 1 0 -11 0zM1397 181.5 a5.5 5.5 0 1 0 11 0 a5.5 5.5 0 1 0 -11 0z" fill="rgba(0, 0, 0, 1)"></path><path d="M1831.5 1237.5L1930.5 1138.5" stroke-width="5.5" stroke="rgba(0, 0, 0, 1)"></path><path d="M1826 1237.5 a5.5 5.5 0 1 0 11 0 a5.5 5.5 0 1 0 -11 0zM1925 1138.5 a5.5 5.5 0 1 0 11 0 a5.5 5.5 0 1 0 -11 0z" fill="rgba(0, 0, 0, 1)"></path><path d="M1369.5 1105.5L1369.5 1171.5" stroke-width="5.5" stroke="rgba(0, 0, 0, 1)"></path><path d="M1364 1105.5 a5.5 5.5 0 1 0 11 0 a5.5 5.5 0 1 0 -11 0zM1364 1171.5 a5.5 5.5 0 1 0 11 0 a5.5 5.5 0 1 0 -11 0z" fill="rgba(0, 0, 0, 1)"></path><path d="M1336.5 742.5L1204.5 742.5" stroke-width="5.5" stroke="rgba(0, 0, 0, 1)"></path><path d="M1331 742.5 a5.5 5.5 0 1 0 11 0 a5.5 5.5 0 1 0 -11 0zM1199 742.5 a5.5 5.5 0 1 0 11 0 a5.5 5.5 0 1 0 -11 0z" fill="rgba(0, 0, 0, 1)"></path><path d="M1600.5 379.5L1600.5 280.5" stroke-width="5.5" stroke="rgba(0, 0, 0, 1)"></path><path d="M1595 379.5 a5.5 5.5 0 1 0 11 0 a5.5 5.5 0 1 0 -11 0zM1595 280.5 a5.5 5.5 0 1 0 11 0 a5.5 5.5 0 1 0 -11 0z" fill="rgba(0, 0, 0, 1)"></path><path d="M1864.5 49.5L1831.5 16.5L1798.5 16.5" stroke-width="5.5" stroke="rgba(0, 0, 0, 1)"></path><path d="M1859 49.5 a5.5 5.5 0 1 0 11 0 a5.5 5.5 0 1 0 -11 0zM1793 16.5 a5.5 5.5 0 1 0 11 0 a5.5 5.5 0 1 0 -11 0z" fill="rgba(0, 0, 0, 1)"></path><path d="M1435.5 676.5L1468.5 643.5L1468.5 577.5" stroke-width="5.5" stroke="rgba(0, 0, 0, 1)"></path><path d="M1430 676.5 a5.5 5.5 0 1 0 11 0 a5.5 5.5 0 1 0 -11 0zM1463 577.5 a5.5 5.5 0 1 0 11 0 a5.5 5.5 0 1 0 -11 0z" fill="rgba(0, 0, 0, 1)"></path><path d="M1666.5 313.5L1798.5 313.5" stroke-width="5.5" stroke="rgba(0, 0, 0, 1)"></path><path d="M1661 313.5 a5.5 5.5 0 1 0 11 0 a5.5 5.5 0 1 0 -11 0zM1793 313.5 a5.5 5.5 0 1 0 11 0 a5.5 5.5 0 1 0 -11 0z" fill="rgba(0, 0, 0, 1)"></path><path d="M313.5 49.5L280.5 82.5L247.5 82.5" stroke-width="5.5" stroke="rgba(0, 0, 0, 1)"></path><path d="M308 49.5 a5.5 5.5 0 1 0 11 0 a5.5 5.5 0 1 0 -11 0zM242 82.5 a5.5 5.5 0 1 0 11 0 a5.5 5.5 0 1 0 -11 0z" fill="rgba(0, 0, 0, 1)"></path><path d="M1138.5 544.5L1105.5 544.5L1072.5 577.5" stroke-width="5.5" stroke="rgba(0, 0, 0, 1)"></path><path d="M1133 544.5 a5.5 5.5 0 1 0 11 0 a5.5 5.5 0 1 0 -11 0zM1067 577.5 a5.5 5.5 0 1 0 11 0 a5.5 5.5 0 1 0 -11 0z" fill="rgba(0, 0, 0, 1)"></path><path d="M709.5 1171.5L709.5 1138.5L742.5 1105.5" stroke-width="5.5" stroke="rgba(0, 0, 0, 1)"></path><path d="M704 1171.5 a5.5 5.5 0 1 0 11 0 a5.5 5.5 0 1 0 -11 0zM737 1105.5 a5.5 5.5 0 1 0 11 0 a5.5 5.5 0 1 0 -11 0z" fill="rgba(0, 0, 0, 1)"></path><path d="M1930.5 775.5L1930.5 709.5" stroke-width="5.5" stroke="rgba(0, 0, 0, 1)"></path><path d="M1925 775.5 a5.5 5.5 0 1 0 11 0 a5.5 5.5 0 1 0 -11 0zM1925 709.5 a5.5 5.5 0 1 0 11 0 a5.5 5.5 0 1 0 -11 0z" fill="rgba(0, 0, 0, 1)"></path><path d="M1105.5 478.5L1072.5 511.5L1039.5 511.5" stroke-width="5.5" stroke="rgba(0, 0, 0, 1)"></path><path d="M1100 478.5 a5.5 5.5 0 1 0 11 0 a5.5 5.5 0 1 0 -11 0zM1034 511.5 a5.5 5.5 0 1 0 11 0 a5.5 5.5 0 1 0 -11 0z" fill="rgba(0, 0, 0, 1)"></path><path d="M280.5 313.5L247.5 280.5L181.5 280.5" stroke-width="5.5" stroke="rgba(0, 0, 0, 1)"></path><path d="M275 313.5 a5.5 5.5 0 1 0 11 0 a5.5 5.5 0 1 0 -11 0zM176 280.5 a5.5 5.5 0 1 0 11 0 a5.5 5.5 0 1 0 -11 0z" fill="rgba(0, 0, 0, 1)"></path><path d="M1831.5 1072.5L1831.5 1105.5L1765.5 1171.5" stroke-width="5.5" stroke="rgba(0, 0, 0, 1)"></path><path d="M1826 1072.5 a5.5 5.5 0 1 0 11 0 a5.5 5.5 0 1 0 -11 0zM1760 1171.5 a5.5 5.5 0 1 0 11 0 a5.5 5.5 0 1 0 -11 0z" fill="rgba(0, 0, 0, 1)"></path><path d="M478.5 115.5L577.5 214.5L577.5 247.5" stroke-width="5.5" stroke="rgba(0, 0, 0, 1)"></path><path d="M473 115.5 a5.5 5.5 0 1 0 11 0 a5.5 5.5 0 1 0 -11 0zM572 247.5 a5.5 5.5 0 1 0 11 0 a5.5 5.5 0 1 0 -11 0z" fill="rgba(0, 0, 0, 1)"></path><path d="M676.5 1039.5L676.5 1204.5" stroke-width="5.5" stroke="rgba(0, 0, 0, 1)"></path><path d="M671 1039.5 a5.5 5.5 0 1 0 11 0 a5.5 5.5 0 1 0 -11 0zM671 1204.5 a5.5 5.5 0 1 0 11 0 a5.5 5.5 0 1 0 -11 0z" fill="rgba(0, 0, 0, 1)"></path><path d="M511.5 775.5L511.5 709.5" stroke-width="5.5" stroke="rgba(0, 0, 0, 1)"></path><path d="M506 775.5 a5.5 5.5 0 1 0 11 0 a5.5 5.5 0 1 0 -11 0zM506 709.5 a5.5 5.5 0 1 0 11 0 a5.5 5.5 0 1 0 -11 0z" fill="rgba(0, 0, 0, 1)"></path><path d="M1897.5 280.5L1897.5 214.5" stroke-width="5.5" stroke="rgba(0, 0, 0, 1)"></path><path d="M1892 280.5 a5.5 5.5 0 1 0 11 0 a5.5 5.5 0 1 0 -11 0zM1892 214.5 a5.5 5.5 0 1 0 11 0 a5.5 5.5 0 1 0 -11 0z" fill="rgba(0, 0, 0, 1)"></path><path d="M511.5 973.5L511.5 940.5L478.5 907.5L445.5 907.5" stroke-width="5.5" stroke="rgba(0, 0, 0, 1)"></path><path d="M506 973.5 a5.5 5.5 0 1 0 11 0 a5.5 5.5 0 1 0 -11 0zM440 907.5 a5.5 5.5 0 1 0 11 0 a5.5 5.5 0 1 0 -11 0z" fill="rgba(0, 0, 0, 1)"></path><path d="M1039.5 775.5L1072.5 775.5L1138.5 841.5L1204.5 841.5" stroke-width="5.5" stroke="rgba(0, 0, 0, 1)"></path><path d="M1034 775.5 a5.5 5.5 0 1 0 11 0 a5.5 5.5 0 1 0 -11 0zM1199 841.5 a5.5 5.5 0 1 0 11 0 a5.5 5.5 0 1 0 -11 0z" fill="rgba(0, 0, 0, 1)"></path><path d="M148.5 379.5L214.5 379.5L247.5 412.5" stroke-width="5.5" stroke="rgba(0, 0, 0, 1)"></path><path d="M143 379.5 a5.5 5.5 0 1 0 11 0 a5.5 5.5 0 1 0 -11 0zM242 412.5 a5.5 5.5 0 1 0 11 0 a5.5 5.5 0 1 0 -11 0z" fill="rgba(0, 0, 0, 1)"></path><path d="M16.5 1138.5L49.5 1171.5L82.5 1171.5" stroke-width="5.5" stroke="rgba(0, 0, 0, 1)"></path><path d="M11 1138.5 a5.5 5.5 0 1 0 11 0 a5.5 5.5 0 1 0 -11 0zM77 1171.5 a5.5 5.5 0 1 0 11 0 a5.5 5.5 0 1 0 -11 0z" fill="rgba(0, 0, 0, 1)"></path><path d="M1831.5 1204.5L1798.5 1204.5L1765.5 1237.5" stroke-width="5.5" stroke="rgba(0, 0, 0, 1)"></path><path d="M1826 1204.5 a5.5 5.5 0 1 0 11 0 a5.5 5.5 0 1 0 -11 0zM1760 1237.5 a5.5 5.5 0 1 0 11 0 a5.5 5.5 0 1 0 -11 0z" fill="rgba(0, 0, 0, 1)"></path><path d="M1468.5 49.5L1402.5 49.5" stroke-width="5.5" stroke="rgba(0, 0, 0, 1)"></path><path d="M1463 49.5 a5.5 5.5 0 1 0 11 0 a5.5 5.5 0 1 0 -11 0zM1397 49.5 a5.5 5.5 0 1 0 11 0 a5.5 5.5 0 1 0 -11 0z" fill="rgba(0, 0, 0, 1)"></path><path d="M1699.5 511.5L1732.5 511.5L1765.5 478.5" stroke-width="5.5" stroke="rgba(0, 0, 0, 1)"></path><path d="M1694 511.5 a5.5 5.5 0 1 0 11 0 a5.5 5.5 0 1 0 -11 0zM1760 478.5 a5.5 5.5 0 1 0 11 0 a5.5 5.5 0 1 0 -11 0z" fill="rgba(0, 0, 0, 1)"></path><path d="M445.5 181.5L379.5 181.5" stroke-width="5.5" stroke="rgba(0, 0, 0, 1)"></path><path d="M440 181.5 a5.5 5.5 0 1 0 11 0 a5.5 5.5 0 1 0 -11 0zM374 181.5 a5.5 5.5 0 1 0 11 0 a5.5 5.5 0 1 0 -11 0z" fill="rgba(0, 0, 0, 1)"></path><path d="M1468.5 115.5L1468.5 82.5L1501.5 49.5" stroke-width="5.5" stroke="rgba(0, 0, 0, 1)"></path><path d="M1463 115.5 a5.5 5.5 0 1 0 11 0 a5.5 5.5 0 1 0 -11 0zM1496 49.5 a5.5 5.5 0 1 0 11 0 a5.5 5.5 0 1 0 -11 0z" fill="rgba(0, 0, 0, 1)"></path><path d="M1006.5 1072.5L1105.5 973.5" stroke-width="5.5" stroke="rgba(0, 0, 0, 1)"></path><path d="M1001 1072.5 a5.5 5.5 0 1 0 11 0 a5.5 5.5 0 1 0 -11 0zM1100 973.5 a5.5 5.5 0 1 0 11 0 a5.5 5.5 0 1 0 -11 0z" fill="rgba(0, 0, 0, 1)"></path><path d="M1765.5 214.5L1798.5 181.5L1798.5 148.5" stroke-width="5.5" stroke="rgba(0, 0, 0, 1)"></path><path d="M1760 214.5 a5.5 5.5 0 1 0 11 0 a5.5 5.5 0 1 0 -11 0zM1793 148.5 a5.5 5.5 0 1 0 11 0 a5.5 5.5 0 1 0 -11 0z" fill="rgba(0, 0, 0, 1)"></path><path d="M1237.5 115.5L1237.5 181.5" stroke-width="5.5" stroke="rgba(0, 0, 0, 1)"></path><path d="M1232 115.5 a5.5 5.5 0 1 0 11 0 a5.5 5.5 0 1 0 -11 0zM1232 181.5 a5.5 5.5 0 1 0 11 0 a5.5 5.5 0 1 0 -11 0z" fill="rgba(0, 0, 0, 1)"></path><path d="M1567.5 1006.5L1567.5 940.5" stroke-width="5.5" stroke="rgba(0, 0, 0, 1)"></path><path d="M1562 1006.5 a5.5 5.5 0 1 0 11 0 a5.5 5.5 0 1 0 -11 0zM1562 940.5 a5.5 5.5 0 1 0 11 0 a5.5 5.5 0 1 0 -11 0z" fill="rgba(0, 0, 0, 1)"></path><path d="M709.5 511.5L808.5 511.5" stroke-width="5.5" stroke="rgba(0, 0, 0, 1)"></path><path d="M704 511.5 a5.5 5.5 0 1 0 11 0 a5.5 5.5 0 1 0 -11 0zM803 511.5 a5.5 5.5 0 1 0 11 0 a5.5 5.5 0 1 0 -11 0z" fill="rgba(0, 0, 0, 1)"></path><path d="M478.5 445.5L511.5 478.5L577.5 478.5" stroke-width="5.5" stroke="rgba(0, 0, 0, 1)"></path><path d="M473 445.5 a5.5 5.5 0 1 0 11 0 a5.5 5.5 0 1 0 -11 0zM572 478.5 a5.5 5.5 0 1 0 11 0 a5.5 5.5 0 1 0 -11 0z" fill="rgba(0, 0, 0, 1)"></path><path d="M907.5 1006.5L907.5 973.5L1039.5 841.5" stroke-width="5.5" stroke="rgba(0, 0, 0, 1)"></path><path d="M902 1006.5 a5.5 5.5 0 1 0 11 0 a5.5 5.5 0 1 0 -11 0zM1034 841.5 a5.5 5.5 0 1 0 11 0 a5.5 5.5 0 1 0 -11 0z" fill="rgba(0, 0, 0, 1)"></path><path d="M478.5 214.5L511.5 247.5L511.5 280.5" stroke-width="5.5" stroke="rgba(0, 0, 0, 1)"></path><path d="M473 214.5 a5.5 5.5 0 1 0 11 0 a5.5 5.5 0 1 0 -11 0zM506 280.5 a5.5 5.5 0 1 0 11 0 a5.5 5.5 0 1 0 -11 0z" fill="rgba(0, 0, 0, 1)"></path><path d="M874.5 874.5L841.5 874.5L808.5 907.5" stroke-width="5.5" stroke="rgba(0, 0, 0, 1)"></path><path d="M869 874.5 a5.5 5.5 0 1 0 11 0 a5.5 5.5 0 1 0 -11 0zM803 907.5 a5.5 5.5 0 1 0 11 0 a5.5 5.5 0 1 0 -11 0z" fill="rgba(0, 0, 0, 1)"></path><path d="M1072.5 181.5L1105.5 181.5L1138.5 148.5" stroke-width="5.5" stroke="rgba(0, 0, 0, 1)"></path><path d="M1067 181.5 a5.5 5.5 0 1 0 11 0 a5.5 5.5 0 1 0 -11 0zM1133 148.5 a5.5 5.5 0 1 0 11 0 a5.5 5.5 0 1 0 -11 0z" fill="rgba(0, 0, 0, 1)"></path><path d="M643.5 1171.5L643.5 1072.5" stroke-width="5.5" stroke="rgba(0, 0, 0, 1)"></path><path d="M638 1171.5 a5.5 5.5 0 1 0 11 0 a5.5 5.5 0 1 0 -11 0zM638 1072.5 a5.5 5.5 0 1 0 11 0 a5.5 5.5 0 1 0 -11 0z" fill="rgba(0, 0, 0, 1)"></path><path d="M1864.5 247.5L1864.5 313.5" stroke-width="5.5" stroke="rgba(0, 0, 0, 1)"></path><path d="M1859 247.5 a5.5 5.5 0 1 0 11 0 a5.5 5.5 0 1 0 -11 0zM1859 313.5 a5.5 5.5 0 1 0 11 0 a5.5 5.5 0 1 0 -11 0z" fill="rgba(0, 0, 0, 1)"></path><path d="M1633.5 346.5L1633.5 280.5" stroke-width="5.5" stroke="rgba(0, 0, 0, 1)"></path><path d="M1628 346.5 a5.5 5.5 0 1 0 11 0 a5.5 5.5 0 1 0 -11 0zM1628 280.5 a5.5 5.5 0 1 0 11 0 a5.5 5.5 0 1 0 -11 0z" fill="rgba(0, 0, 0, 1)"></path><path d="M841.5 16.5L775.5 16.5" stroke-width="5.5" stroke="rgba(0, 0, 0, 1)"></path><path d="M836 16.5 a5.5 5.5 0 1 0 11 0 a5.5 5.5 0 1 0 -11 0zM770 16.5 a5.5 5.5 0 1 0 11 0 a5.5 5.5 0 1 0 -11 0z" fill="rgba(0, 0, 0, 1)"></path><path d="M1831.5 379.5L1897.5 379.5" stroke-width="5.5" stroke="rgba(0, 0, 0, 1)"></path><path d="M1826 379.5 a5.5 5.5 0 1 0 11 0 a5.5 5.5 0 1 0 -11 0zM1892 379.5 a5.5 5.5 0 1 0 11 0 a5.5 5.5 0 1 0 -11 0z" fill="rgba(0, 0, 0, 1)"></path><path d="M1765.5 841.5L1798.5 874.5L1831.5 874.5" stroke-width="5.5" stroke="rgba(0, 0, 0, 1)"></path><path d="M1760 841.5 a5.5 5.5 0 1 0 11 0 a5.5 5.5 0 1 0 -11 0zM1826 874.5 a5.5 5.5 0 1 0 11 0 a5.5 5.5 0 1 0 -11 0z" fill="rgba(0, 0, 0, 1)"></path><path d="M1039.5 115.5L1072.5 148.5L1105.5 148.5" stroke-width="5.5" stroke="rgba(0, 0, 0, 1)"></path><path d="M1034 115.5 a5.5 5.5 0 1 0 11 0 a5.5 5.5 0 1 0 -11 0zM1100 148.5 a5.5 5.5 0 1 0 11 0 a5.5 5.5 0 1 0 -11 0z" fill="rgba(0, 0, 0, 1)"></path><path d="M1336.5 511.5L1369.5 478.5L1369.5 445.5" stroke-width="5.5" stroke="rgba(0, 0, 0, 1)"></path><path d="M1331 511.5 a5.5 5.5 0 1 0 11 0 a5.5 5.5 0 1 0 -11 0zM1364 445.5 a5.5 5.5 0 1 0 11 0 a5.5 5.5 0 1 0 -11 0z" fill="rgba(0, 0, 0, 1)"></path><path d="M1765.5 544.5L1798.5 544.5L1831.5 511.5" stroke-width="5.5" stroke="rgba(0, 0, 0, 1)"></path><path d="M1760 544.5 a5.5 5.5 0 1 0 11 0 a5.5 5.5 0 1 0 -11 0zM1826 511.5 a5.5 5.5 0 1 0 11 0 a5.5 5.5 0 1 0 -11 0z" fill="rgba(0, 0, 0, 1)"></path><path d="M1105.5 643.5L1039.5 643.5" stroke-width="5.5" stroke="rgba(0, 0, 0, 1)"></path><path d="M1100 643.5 a5.5 5.5 0 1 0 11 0 a5.5 5.5 0 1 0 -11 0zM1034 643.5 a5.5 5.5 0 1 0 11 0 a5.5 5.5 0 1 0 -11 0z" fill="rgba(0, 0, 0, 1)"></path></g></g><defs><mask id="SvgjsMask1044"><rect width="1920" height="1279" fill="#ffffff"></rect></mask></defs></svg>