<svg xmlns="http://www.w3.org/2000/svg" version="1.1" xmlns:xlink="http://www.w3.org/1999/xlink" xmlns:svgjs="http://svgjs.com/svgjs" width="1200" height="328" preserveAspectRatio="none" viewBox="0 0 1200 328">
    <g mask="url(&quot;#SvgjsMask1410&quot;)" fill="none">
        <rect width="1200" height="328" x="0" y="0" fill="rgba(227, 201, 0, 1)"></rect>
        <g mask="url(&quot;#SvgjsMask1411&quot;)">
            <path d="M142.5 161.5L161.5 180.5L180.5 180.5L199.5 180.5L218.5 180.5L237.5 180.5L256.5 199.5L275.5 199.5M275.5 180.5L294.5 161.5L313.5 161.5L332.5 161.5L351.5 161.5L370.5 161.5L389.5 161.5M66.5 161.5L85.5 142.5L104.5 142.5M674.5 161.5L693.5 180.5M541.5 161.5L560.5 180.5M484.5 161.5L503.5 180.5L522.5 180.5M427.5 161.5L446.5 180.5L465.5 180.5L484.5 180.5L503.5 199.5M655.5 161.5L674.5 142.5L693.5 142.5L712.5 123.5L731.5 123.5L750.5 123.5M256.5 180.5L275.5 161.5M-9.5 161.5L9.5 161.5L28.5 161.5L47.5 161.5L66.5 161.5L85.5 161.5L104.5 161.5L123.5 161.5L142.5 161.5L161.5 161.5L180.5 161.5L199.5 161.5L218.5 161.5L237.5 161.5L256.5 180.5L275.5 180.5L294.5 180.5L313.5 180.5L332.5 180.5L351.5 180.5L370.5 180.5L389.5 180.5L408.5 161.5L427.5 161.5L446.5 161.5L465.5 161.5L484.5 161.5L503.5 161.5L522.5 161.5L541.5 161.5L560.5 161.5L579.5 161.5L598.5 161.5L617.5 161.5L636.5 161.5L655.5 161.5L674.5 161.5L693.5 161.5L712.5 161.5" stroke="rgba(245, 73, 8, 1)" stroke-width="3.17"></path>
            <path d="M707.75 161.5 a4.75 4.75 0 1 0 9.5 0 a4.75 4.75 0 1 0 -9.5 0zM270.75 199.5 a4.75 4.75 0 1 0 9.5 0 a4.75 4.75 0 1 0 -9.5 0zM384.75 161.5 a4.75 4.75 0 1 0 9.5 0 a4.75 4.75 0 1 0 -9.5 0zM99.75 142.5 a4.75 4.75 0 1 0 9.5 0 a4.75 4.75 0 1 0 -9.5 0zM688.75 180.5 a4.75 4.75 0 1 0 9.5 0 a4.75 4.75 0 1 0 -9.5 0zM555.75 180.5 a4.75 4.75 0 1 0 9.5 0 a4.75 4.75 0 1 0 -9.5 0zM517.75 180.5 a4.75 4.75 0 1 0 9.5 0 a4.75 4.75 0 1 0 -9.5 0zM498.75 199.5 a4.75 4.75 0 1 0 9.5 0 a4.75 4.75 0 1 0 -9.5 0zM745.75 123.5 a4.75 4.75 0 1 0 9.5 0 a4.75 4.75 0 1 0 -9.5 0zM270.75 161.5 a4.75 4.75 0 1 0 9.5 0 a4.75 4.75 0 1 0 -9.5 0z" fill="rgba(245, 73, 8, 1)"></path>
            <path d="M351.5 275.5L370.5 256.5L389.5 256.5L408.5 256.5L427.5 256.5L446.5 256.5L465.5 237.5M579.5 256.5L598.5 237.5L617.5 237.5L636.5 237.5M237.5 218.5L256.5 237.5L275.5 237.5M560.5 256.5L579.5 237.5L598.5 218.5L617.5 218.5L636.5 218.5L655.5 218.5L674.5 199.5L693.5 199.5L712.5 199.5L731.5 199.5M503.5 275.5L522.5 275.5L541.5 275.5M427.5 275.5L446.5 294.5L465.5 294.5M408.5 275.5L427.5 294.5M484.5 275.5L503.5 294.5L522.5 294.5M-9.5 180.5L9.5 180.5L28.5 180.5L47.5 180.5L66.5 180.5L85.5 180.5L104.5 180.5L123.5 199.5L142.5 199.5L161.5 199.5L180.5 199.5L199.5 199.5L218.5 218.5L237.5 218.5L256.5 218.5L275.5 218.5L294.5 237.5L313.5 256.5L332.5 275.5L351.5 275.5L370.5 275.5L389.5 275.5L408.5 275.5L427.5 275.5L446.5 275.5L465.5 275.5L484.5 275.5L503.5 275.5L522.5 256.5L541.5 256.5L560.5 256.5L579.5 256.5L598.5 256.5L617.5 256.5" stroke="#3a7cc3" stroke-width="3.17"></path>
            <path d="M612.75 256.5 a4.75 4.75 0 1 0 9.5 0 a4.75 4.75 0 1 0 -9.5 0zM460.75 237.5 a4.75 4.75 0 1 0 9.5 0 a4.75 4.75 0 1 0 -9.5 0zM631.75 237.5 a4.75 4.75 0 1 0 9.5 0 a4.75 4.75 0 1 0 -9.5 0zM270.75 237.5 a4.75 4.75 0 1 0 9.5 0 a4.75 4.75 0 1 0 -9.5 0zM726.75 199.5 a4.75 4.75 0 1 0 9.5 0 a4.75 4.75 0 1 0 -9.5 0zM536.75 275.5 a4.75 4.75 0 1 0 9.5 0 a4.75 4.75 0 1 0 -9.5 0zM460.75 294.5 a4.75 4.75 0 1 0 9.5 0 a4.75 4.75 0 1 0 -9.5 0zM422.75 294.5 a4.75 4.75 0 1 0 9.5 0 a4.75 4.75 0 1 0 -9.5 0zM517.75 294.5 a4.75 4.75 0 1 0 9.5 0 a4.75 4.75 0 1 0 -9.5 0z" fill="#3a7cc3"></path>
            <path d="M180.5 142.5L199.5 123.5L218.5 123.5L237.5 123.5L256.5 123.5L275.5 123.5L294.5 123.5L313.5 123.5L332.5 123.5L351.5 123.5M484.5 142.5L503.5 123.5L522.5 123.5L541.5 123.5L560.5 123.5M123.5 123.5L142.5 142.5M465.5 142.5L484.5 123.5M598.5 142.5L617.5 123.5L636.5 123.5L655.5 123.5L674.5 123.5M161.5 142.5L180.5 123.5M47.5 142.5L66.5 142.5M579.5 142.5L598.5 123.5L617.5 104.5L636.5 104.5L655.5 104.5L674.5 104.5L693.5 104.5L712.5 104.5L731.5 104.5M-9.5 142.5L9.5 142.5L28.5 142.5L47.5 142.5L66.5 123.5L85.5 123.5L104.5 123.5L123.5 123.5L142.5 123.5L161.5 142.5L180.5 142.5L199.5 142.5L218.5 142.5L237.5 142.5L256.5 142.5L275.5 142.5L294.5 142.5L313.5 142.5L332.5 142.5L351.5 142.5L370.5 142.5L389.5 142.5L408.5 142.5L427.5 142.5L446.5 142.5L465.5 142.5L484.5 142.5L503.5 142.5L522.5 142.5L541.5 142.5L560.5 142.5L579.5 142.5L598.5 142.5L617.5 142.5" stroke="#3a7cc3" stroke-width="3.17"></path>
            <path d="M612.75 142.5 a4.75 4.75 0 1 0 9.5 0 a4.75 4.75 0 1 0 -9.5 0zM346.75 123.5 a4.75 4.75 0 1 0 9.5 0 a4.75 4.75 0 1 0 -9.5 0zM555.75 123.5 a4.75 4.75 0 1 0 9.5 0 a4.75 4.75 0 1 0 -9.5 0zM137.75 142.5 a4.75 4.75 0 1 0 9.5 0 a4.75 4.75 0 1 0 -9.5 0zM479.75 123.5 a4.75 4.75 0 1 0 9.5 0 a4.75 4.75 0 1 0 -9.5 0zM669.75 123.5 a4.75 4.75 0 1 0 9.5 0 a4.75 4.75 0 1 0 -9.5 0zM175.75 123.5 a4.75 4.75 0 1 0 9.5 0 a4.75 4.75 0 1 0 -9.5 0zM61.75 142.5 a4.75 4.75 0 1 0 9.5 0 a4.75 4.75 0 1 0 -9.5 0zM726.75 104.5 a4.75 4.75 0 1 0 9.5 0 a4.75 4.75 0 1 0 -9.5 0z" fill="#3a7cc3"></path>
            <path d="M85.5 237.5L104.5 218.5L123.5 218.5M180.5 218.5L199.5 237.5L218.5 256.5M66.5 237.5L85.5 218.5L104.5 199.5M237.5 256.5L256.5 275.5L275.5 275.5L294.5 275.5M218.5 237.5L237.5 237.5M-9.5 199.5L9.5 218.5L28.5 218.5L47.5 237.5L66.5 237.5L85.5 237.5L104.5 237.5L123.5 237.5L142.5 237.5L161.5 237.5L180.5 218.5L199.5 218.5L218.5 237.5L237.5 256.5L256.5 256.5L275.5 256.5L294.5 256.5L313.5 275.5L332.5 294.5L351.5 294.5L370.5 294.5L389.5 294.5" stroke="rgba(245, 73, 8, 1)" stroke-width="3.17"></path>
            <path d="M384.75 294.5 a4.75 4.75 0 1 0 9.5 0 a4.75 4.75 0 1 0 -9.5 0zM118.75 218.5 a4.75 4.75 0 1 0 9.5 0 a4.75 4.75 0 1 0 -9.5 0zM213.75 256.5 a4.75 4.75 0 1 0 9.5 0 a4.75 4.75 0 1 0 -9.5 0zM99.75 199.5 a4.75 4.75 0 1 0 9.5 0 a4.75 4.75 0 1 0 -9.5 0zM289.75 275.5 a4.75 4.75 0 1 0 9.5 0 a4.75 4.75 0 1 0 -9.5 0zM232.75 237.5 a4.75 4.75 0 1 0 9.5 0 a4.75 4.75 0 1 0 -9.5 0z" fill="rgba(245, 73, 8, 1)"></path>
            <path d="M294.5 85.5L313.5 66.5L332.5 66.5L351.5 66.5L370.5 66.5M484.5 104.5L503.5 85.5L522.5 85.5L541.5 85.5L560.5 85.5M332.5 85.5L351.5 104.5L370.5 104.5M180.5 104.5L199.5 85.5M446.5 104.5L465.5 123.5M142.5 104.5L161.5 85.5L180.5 85.5L199.5 66.5L218.5 66.5L237.5 66.5L256.5 66.5L275.5 66.5L294.5 66.5M389.5 85.5L408.5 85.5L427.5 85.5L446.5 85.5L465.5 85.5L484.5 85.5L503.5 66.5M-9.5 123.5L9.5 123.5L28.5 123.5L47.5 123.5L66.5 104.5L85.5 104.5L104.5 104.5L123.5 104.5L142.5 104.5L161.5 104.5L180.5 104.5L199.5 104.5L218.5 85.5L237.5 85.5L256.5 85.5L275.5 85.5L294.5 85.5L313.5 85.5L332.5 85.5L351.5 85.5L370.5 85.5L389.5 85.5L408.5 104.5L427.5 104.5L446.5 104.5L465.5 104.5L484.5 104.5L503.5 104.5L522.5 104.5L541.5 104.5L560.5 104.5" stroke="rgba(245, 73, 8, 1)" stroke-width="3.17"></path>
            <path d="M555.75 104.5 a4.75 4.75 0 1 0 9.5 0 a4.75 4.75 0 1 0 -9.5 0zM365.75 66.5 a4.75 4.75 0 1 0 9.5 0 a4.75 4.75 0 1 0 -9.5 0zM555.75 85.5 a4.75 4.75 0 1 0 9.5 0 a4.75 4.75 0 1 0 -9.5 0zM365.75 104.5 a4.75 4.75 0 1 0 9.5 0 a4.75 4.75 0 1 0 -9.5 0zM194.75 85.5 a4.75 4.75 0 1 0 9.5 0 a4.75 4.75 0 1 0 -9.5 0zM460.75 123.5 a4.75 4.75 0 1 0 9.5 0 a4.75 4.75 0 1 0 -9.5 0zM289.75 66.5 a4.75 4.75 0 1 0 9.5 0 a4.75 4.75 0 1 0 -9.5 0zM498.75 66.5 a4.75 4.75 0 1 0 9.5 0 a4.75 4.75 0 1 0 -9.5 0z" fill="rgba(245, 73, 8, 1)"></path>
            <path d="M161.5 256.5L180.5 256.5L199.5 256.5M-9.5 218.5L9.5 237.5L28.5 237.5L47.5 256.5L66.5 256.5L85.5 256.5L104.5 256.5L123.5 256.5L142.5 256.5L161.5 256.5L180.5 275.5L199.5 275.5L218.5 275.5L237.5 294.5L256.5 294.5L275.5 294.5L294.5 294.5L313.5 294.5" stroke="rgba(245, 73, 8, 1)" stroke-width="3.17"></path>
            <path d="M308.75 294.5 a4.75 4.75 0 1 0 9.5 0 a4.75 4.75 0 1 0 -9.5 0zM194.75 256.5 a4.75 4.75 0 1 0 9.5 0 a4.75 4.75 0 1 0 -9.5 0z" fill="rgba(245, 73, 8, 1)"></path>
            <path d="M-9.5 104.5L9.5 104.5L28.5 104.5" stroke="#3a7cc3" stroke-width="3.17"></path>
            <path d="M23.75 104.5 a4.75 4.75 0 1 0 9.5 0 a4.75 4.75 0 1 0 -9.5 0z" fill="#3a7cc3"></path>
            <path d="M85.5 275.5L104.5 294.5M28.5 275.5L47.5 294.5M66.5 275.5L85.5 294.5M-9.5 237.5L9.5 256.5L28.5 275.5L47.5 275.5L66.5 275.5L85.5 275.5L104.5 275.5L123.5 275.5L142.5 275.5L161.5 275.5L180.5 294.5L199.5 294.5L218.5 294.5" stroke="#3a7cc3" stroke-width="3.17"></path>
            <path d="M213.75 294.5 a4.75 4.75 0 1 0 9.5 0 a4.75 4.75 0 1 0 -9.5 0zM99.75 294.5 a4.75 4.75 0 1 0 9.5 0 a4.75 4.75 0 1 0 -9.5 0zM42.75 294.5 a4.75 4.75 0 1 0 9.5 0 a4.75 4.75 0 1 0 -9.5 0zM80.75 294.5 a4.75 4.75 0 1 0 9.5 0 a4.75 4.75 0 1 0 -9.5 0z" fill="#3a7cc3"></path>
            <path d="M47.5 85.5L66.5 66.5M123.5 66.5L142.5 85.5M66.5 85.5L85.5 85.5L104.5 85.5L123.5 85.5M9.5 85.5L28.5 66.5L47.5 66.5L66.5 47.5M-9.5 85.5L9.5 85.5L28.5 85.5L47.5 85.5L66.5 85.5L85.5 66.5L104.5 66.5L123.5 66.5L142.5 66.5L161.5 66.5L180.5 47.5L199.5 47.5L218.5 47.5L237.5 47.5L256.5 47.5L275.5 47.5L294.5 47.5L313.5 47.5L332.5 47.5" stroke="rgba(245, 73, 8, 1)" stroke-width="3.17"></path>
            <path d="M327.75 47.5 a4.75 4.75 0 1 0 9.5 0 a4.75 4.75 0 1 0 -9.5 0zM61.75 66.5 a4.75 4.75 0 1 0 9.5 0 a4.75 4.75 0 1 0 -9.5 0zM137.75 85.5 a4.75 4.75 0 1 0 9.5 0 a4.75 4.75 0 1 0 -9.5 0zM118.75 85.5 a4.75 4.75 0 1 0 9.5 0 a4.75 4.75 0 1 0 -9.5 0zM61.75 47.5 a4.75 4.75 0 1 0 9.5 0 a4.75 4.75 0 1 0 -9.5 0z" fill="rgba(245, 73, 8, 1)"></path>
        </g>
    </g>
    <defs>
        <mask id="SvgjsMask1410">
            <rect width="1200" height="328" fill="#ffffff"></rect>
        </mask>
        <mask id="SvgjsMask1411">
            <rect width="1200" height="328" fill="white"></rect>
            <path d="M710.12 161.5 a2.38 2.38 0 1 0 4.76 0 a2.38 2.38 0 1 0 -4.76 0zM273.12 199.5 a2.38 2.38 0 1 0 4.76 0 a2.38 2.38 0 1 0 -4.76 0zM387.12 161.5 a2.38 2.38 0 1 0 4.76 0 a2.38 2.38 0 1 0 -4.76 0zM102.12 142.5 a2.38 2.38 0 1 0 4.76 0 a2.38 2.38 0 1 0 -4.76 0zM691.12 180.5 a2.38 2.38 0 1 0 4.76 0 a2.38 2.38 0 1 0 -4.76 0zM558.12 180.5 a2.38 2.38 0 1 0 4.76 0 a2.38 2.38 0 1 0 -4.76 0zM520.12 180.5 a2.38 2.38 0 1 0 4.76 0 a2.38 2.38 0 1 0 -4.76 0zM501.12 199.5 a2.38 2.38 0 1 0 4.76 0 a2.38 2.38 0 1 0 -4.76 0zM748.12 123.5 a2.38 2.38 0 1 0 4.76 0 a2.38 2.38 0 1 0 -4.76 0zM273.12 161.5 a2.38 2.38 0 1 0 4.76 0 a2.38 2.38 0 1 0 -4.76 0z" fill="black"></path>
            <path d="M615.12 256.5 a2.38 2.38 0 1 0 4.76 0 a2.38 2.38 0 1 0 -4.76 0zM463.12 237.5 a2.38 2.38 0 1 0 4.76 0 a2.38 2.38 0 1 0 -4.76 0zM634.12 237.5 a2.38 2.38 0 1 0 4.76 0 a2.38 2.38 0 1 0 -4.76 0zM273.12 237.5 a2.38 2.38 0 1 0 4.76 0 a2.38 2.38 0 1 0 -4.76 0zM729.12 199.5 a2.38 2.38 0 1 0 4.76 0 a2.38 2.38 0 1 0 -4.76 0zM539.12 275.5 a2.38 2.38 0 1 0 4.76 0 a2.38 2.38 0 1 0 -4.76 0zM463.12 294.5 a2.38 2.38 0 1 0 4.76 0 a2.38 2.38 0 1 0 -4.76 0zM425.12 294.5 a2.38 2.38 0 1 0 4.76 0 a2.38 2.38 0 1 0 -4.76 0zM520.12 294.5 a2.38 2.38 0 1 0 4.76 0 a2.38 2.38 0 1 0 -4.76 0z" fill="black"></path>
            <path d="M615.12 142.5 a2.38 2.38 0 1 0 4.76 0 a2.38 2.38 0 1 0 -4.76 0zM349.12 123.5 a2.38 2.38 0 1 0 4.76 0 a2.38 2.38 0 1 0 -4.76 0zM558.12 123.5 a2.38 2.38 0 1 0 4.76 0 a2.38 2.38 0 1 0 -4.76 0zM140.12 142.5 a2.38 2.38 0 1 0 4.76 0 a2.38 2.38 0 1 0 -4.76 0zM482.12 123.5 a2.38 2.38 0 1 0 4.76 0 a2.38 2.38 0 1 0 -4.76 0zM672.12 123.5 a2.38 2.38 0 1 0 4.76 0 a2.38 2.38 0 1 0 -4.76 0zM178.12 123.5 a2.38 2.38 0 1 0 4.76 0 a2.38 2.38 0 1 0 -4.76 0zM64.12 142.5 a2.38 2.38 0 1 0 4.76 0 a2.38 2.38 0 1 0 -4.76 0zM729.12 104.5 a2.38 2.38 0 1 0 4.76 0 a2.38 2.38 0 1 0 -4.76 0z" fill="black"></path>
            <path d="M387.12 294.5 a2.38 2.38 0 1 0 4.76 0 a2.38 2.38 0 1 0 -4.76 0zM121.12 218.5 a2.38 2.38 0 1 0 4.76 0 a2.38 2.38 0 1 0 -4.76 0zM216.12 256.5 a2.38 2.38 0 1 0 4.76 0 a2.38 2.38 0 1 0 -4.76 0zM102.12 199.5 a2.38 2.38 0 1 0 4.76 0 a2.38 2.38 0 1 0 -4.76 0zM292.12 275.5 a2.38 2.38 0 1 0 4.76 0 a2.38 2.38 0 1 0 -4.76 0zM235.12 237.5 a2.38 2.38 0 1 0 4.76 0 a2.38 2.38 0 1 0 -4.76 0z" fill="black"></path>
            <path d="M558.12 104.5 a2.38 2.38 0 1 0 4.76 0 a2.38 2.38 0 1 0 -4.76 0zM368.12 66.5 a2.38 2.38 0 1 0 4.76 0 a2.38 2.38 0 1 0 -4.76 0zM558.12 85.5 a2.38 2.38 0 1 0 4.76 0 a2.38 2.38 0 1 0 -4.76 0zM368.12 104.5 a2.38 2.38 0 1 0 4.76 0 a2.38 2.38 0 1 0 -4.76 0zM197.12 85.5 a2.38 2.38 0 1 0 4.76 0 a2.38 2.38 0 1 0 -4.76 0zM463.12 123.5 a2.38 2.38 0 1 0 4.76 0 a2.38 2.38 0 1 0 -4.76 0zM292.12 66.5 a2.38 2.38 0 1 0 4.76 0 a2.38 2.38 0 1 0 -4.76 0zM501.12 66.5 a2.38 2.38 0 1 0 4.76 0 a2.38 2.38 0 1 0 -4.76 0z" fill="black"></path>
            <path d="M311.12 294.5 a2.38 2.38 0 1 0 4.76 0 a2.38 2.38 0 1 0 -4.76 0zM197.12 256.5 a2.38 2.38 0 1 0 4.76 0 a2.38 2.38 0 1 0 -4.76 0z" fill="black"></path>
            <path d="M26.12 104.5 a2.38 2.38 0 1 0 4.76 0 a2.38 2.38 0 1 0 -4.76 0z" fill="black"></path>
            <path d="M216.12 294.5 a2.38 2.38 0 1 0 4.76 0 a2.38 2.38 0 1 0 -4.76 0zM102.12 294.5 a2.38 2.38 0 1 0 4.76 0 a2.38 2.38 0 1 0 -4.76 0zM45.12 294.5 a2.38 2.38 0 1 0 4.76 0 a2.38 2.38 0 1 0 -4.76 0zM83.12 294.5 a2.38 2.38 0 1 0 4.76 0 a2.38 2.38 0 1 0 -4.76 0z" fill="black"></path>
            <path d="M330.12 47.5 a2.38 2.38 0 1 0 4.76 0 a2.38 2.38 0 1 0 -4.76 0zM64.12 66.5 a2.38 2.38 0 1 0 4.76 0 a2.38 2.38 0 1 0 -4.76 0zM140.12 85.5 a2.38 2.38 0 1 0 4.76 0 a2.38 2.38 0 1 0 -4.76 0zM121.12 85.5 a2.38 2.38 0 1 0 4.76 0 a2.38 2.38 0 1 0 -4.76 0zM64.12 47.5 a2.38 2.38 0 1 0 4.76 0 a2.38 2.38 0 1 0 -4.76 0z" fill="black"></path>
        </mask>
    </defs>
</svg>