<?xml version="1.0" encoding="UTF-8"?>
<svg xmlns="http://www.w3.org/2000/svg" version="1.0" width="180.000000" height="180.000000" viewBox="0 0 180.000000 180.000000" preserveAspectRatio="xMidYMid meet">
   <g transform="translate(0.000000,180.000000) scale(0.100000,-0.100000)" fill="#fae034" stroke="none">
        <path d="M256 1688 c-10 -183 -56 -1486 -56 -1591 l0 -97 702 0 701 0 -6 528
        c-4 290 -10 609 -14 710 l-6 182 -264 0 -263 0 0 178 0 178 -322 12 c-178 7
        -355 12 -395 12 l-71 0 -6 -112z"/>
    </g>
   <g transform="translate(0.000000,180.000000) scale(0.100000,-0.100000)" fill="#343433" stroke="none">
      <path d="M830 527 c0 -275 -3 -287 -67 -287 -26 0 -42 8 -64 31 l-28 30 -51     -28 c-27 -15 -50 -32 -50 -37 0 -5 19 -28 43 -51 62 -62 146 -81 230 -51 50     18 76 42 98 91 16 35 19 69 19 293 l0 252 -65 0 -65 0 0 -243z" />
      <path d="M1175 756 c-82 -35 -123 -136 -91 -220 23 -59 57 -88 167 -144 75     -37 96 -53 104 -76 8 -25 6 -31 -18 -52 -49 -42 -143 -27 -182 28 l-15 23 -46     -25 c-25 -13 -48 -30 -51 -38 -8 -19 54 -81 103 -103 203 -92 407 57 325 237     -23 51 -63 82 -166 129 -107 48 -129 81 -85 125 28 28 73 26 101 -5 13 -13 28     -25 32 -25 5 0 28 14 53 31 l44 30 -20 29 c-44 61 -176 91 -255 56z" />
   </g>
</svg>