<svg xmlns="http://www.w3.org/2000/svg" version="1.1" xmlns:xlink="http://www.w3.org/1999/xlink" xmlns:svgjs="http://svgjs.com/svgjs" width="96" height="96" preserveAspectRatio="none" viewBox="0 0 96 96">
    <g mask="url(&quot;#SvgjsMask1146&quot;)" fill="none">
        <rect width="96" height="96" x="0" y="0" fill="#0e2a47"></rect>
        <path d="M0 0 " stroke="#03305d" stroke-width="2"></path>
        <path d="M20.36 20.87L34.21 28.87L34.21 44.87L20.36 52.87L6.5 44.87L6.5 28.87zM6.5 44.87L20.36 52.87L20.36 68.87L6.5 76.87L-7.36 68.87L-7.36 52.87zM34.21 -3.13L48.07 4.87L48.07 20.87L34.21 28.87L20.36 20.87L20.36 4.87zM48.07 20.87L61.93 28.87L61.93 44.87L48.07 52.87L34.21 44.87L34.21 28.87zM48.07 68.87L61.93 76.87L61.93 92.87L48.07 100.87L34.21 92.87L34.21 76.87zM75.78 20.87L89.64 28.87L89.64 44.87L75.78 52.87L61.93 44.87L61.93 28.87zM89.64 44.87L103.5 52.87L103.5 68.87L89.64 76.87L75.78 68.87L75.78 52.87z" stroke="rgba(23, 136, 140, 0.93)" stroke-width="2"></path>
    </g>
    <defs>
        <mask id="SvgjsMask1146">
            <rect width="96" height="96" fill="#ffffff"></rect>
        </mask>
    </defs>
</svg>